<?xml version="1.0" encoding="UTF-8"?>
<svg id="Layer_1" xmlns="http://www.w3.org/2000/svg" version="1.1" viewBox="0 0 1024 1024">
  <!-- Generator: Adobe Illustrator 30.3.0, SVG Export Plug-In . SVG Version: 2.1.3 Build 182)  -->
  <defs>
    <style>
      .st0 {
        fill: #b5933f;
      }

      .st1 {
        fill: #b2d5e4;
      }

      .st2 {
        fill: #132a52;
      }
    </style>
  </defs>
  <path class="st0" d="M299.4,170.6h199.9c0,0,0,88.6,0,88.6-12,2.5-26,6.2-37.7,9.5v184.7c34.4,0,69.2.3,103.4-.2v-184.3c-11.7-3.5-25.5-6.9-37.4-9.8v-88.6s199.5,0,199.5,0v88.5c-11.7,2.3-26.5,6.6-38.1,9.7,1,60.7.1,123.6,0,184.5,18.6.3,37.9,0,56.6,0v-80.6c-10-3.9-23.7-7.9-34.1-11.4v-86.9s185.3,0,185.3,0v87.2s-37.4,10.7-37.4,10.7v255.4c12.1,3.3,25.2,7.7,37.3,11.4.5,28.3,0,58,0,86.5-60.9-.4-124.3-.7-185.2,0v-86.4c11.4-3.6,22.8-7.4,34.1-11.4v-57.2s-56.7,0-56.7,0v179.4c0,0,0,4.9,0,4.9,12.6,3.9,25.8,6.8,38.3,10.8l.2,87.6h-162.3c.3-31.2,0-63,0-94.2-8.2-9.8-18.8-20.9-27.6-30.4l-52.5-56.6c-7.8-8.4-15.9-16.8-23.4-25.4v108.8c11.4,2,26,7.1,38,9.7v88.1s-200.4,0-200.4,0c0-29.1.3-58.6,0-87.7,11.2-3.6,27-7.7,38.5-10.6v-235.4c-19.9-20.7-39.3-44.1-59.1-64.2v172.1c9.5,4,24.1,8.4,34,11.8v86.3c-61.4-.7-123.8-.1-185.3,0,.2-28.8.2-57.6,0-86.3,11.9-3.7,25.6-8.2,37.5-11.3.5-30.4,0-62,0-92.5v-163.1c-12.4-3.4-25.1-7.4-37.5-10.9.2-29,.2-58,0-87h147.4s39.3,41.4,39.3,41.4c7.7,8.1,16.3,17,23.6,25.3v-72.4c-11.3-3.2-26.6-7.3-38.1-9.7.5-28.9,0-59.5,0-88.5Z"/>
  <path class="st1" d="M314.4,185.1h113c16.7,0,40.3-.7,56.6.2v62.3c-4.8,1.1-35.9,7.8-37.7,12.4-3.7,9.5-2.7,25.7-2.7,36.3v41.5s0,132.3,0,132.3c46.3.5,93,0,139.4.2v-130.4s0-42.9,0-42.9c0-7,1.4-36.1-4.6-38.8-9.3-4.2-25.6-8-35.8-10.4v-62.4c35.9-.3,71.8-.3,107.7-.1h38.5c7.2,0,16-.2,23.1.2v62.3c-8.5,2.1-32.1,6.6-37.8,12.3-3.3,3.3-2.7,32.5-2.6,38.1v41.5s0,130.6,0,130.6h88.8s0-68.9,0-68.9c0-9.4.6-30.2-.8-38.5-7.8-4.1-24.3-9.1-33.2-12.1v-62s156.5,0,156.5,0v62.2c-4,1.1-35.9,9.3-36.2,12.2-2.4,23.9-1.3,50.3-1.3,74.5v169c0,7.5-.4,23.7.8,30.3,4.2,4.7,29.3,10.8,36.7,13v61.5c-51.5.1-105.1.7-156.4,0-.2-20.5-.2-40.9,0-61.3,5.8-1.9,31-8.9,33.1-12.9,2.2-4.3,1.1-72.5,1-83.3l-88.6-.2v135.1s0,42.4,0,42.4c0,9.3-1.2,26.2,3.2,33.9,7.9,5.5,27.2,8.6,37.2,11.6.2,20.8.2,41.6.2,62.4h-128.5c-.9-28.2-.3-57.7-.4-86-12.6-14.9-28.9-31.4-42.2-45.8l-79.2-85.9c0-5.1-.4-17.2,0-21.9-.8-3.1-.1-24.8-.1-28.8,14.7,0,30.9-.4,45.4,0,7.8-.1,15.5-.1,23.3,0l32.8,35.6c5.7,6.2,13.7,15.4,19.6,21,.2-24.5.3-49,.1-73.5-46.1,0-93.2.5-139.2,0v129.5s0,42.4,0,42.4c0,6.1-.7,35.9,3.1,39,6.6,5.4,28.3,9.6,37.4,11.7v62.6c0,0-169.5,0-169.5,0v-62.6c10-2.5,19.8-5,30.1-7.7,12-3.2,9.6-10.7,10.7-21,.2-30.9,0-61.9,0-92.9v-182.7s0-128.2,0-128.2c0-14.7,1.7-71.2-2-81.9-.9-2.7-2.4-3.7-4.9-4.8-9.8-4.4-23.4-6.9-33.9-9.4,0-20.7.2-41.9-.1-62.6Z"/>
  <path class="st2" d="M553.5,196.1h147.1s0,42.6,0,42.6l-.5.2c-23.3,8-41.4,3.3-41.9,35.1-.2,9.2-.3,19-.3,28.3v49.3c0,44.4-.5,89.5-.1,133.7h113.8c0-.1,0-81.1,0-81.1,0-13,.2-26-.4-39-.7-16.1-21.6-18.3-33.7-22.9v-42.6c43.8.3,90.1.7,133.8,0-.1,14.1-.1,28.2,0,42.2-9.8,2.7-30.4,6.9-35.8,15.9-1.4,2.3-1.8,10.8-1.9,13.7-.2,19.4,0,38.8,0,58.2v109.8s0,62.7,0,62.7c0,8.7-.5,23.9.1,32.1.1,1.8.5,3.6,1.1,5.2,1.6,4.8,4.9,7.8,9.5,9.7,8.4,3.5,18.5,6.3,27.2,8.9v41.9s-79.7,0-79.7,0c-17.9,0-36.5-.3-54.3.2v-42.2c11.1-3.7,33.5-8.2,34-22.3.3-10.6.2-21.7.2-32.4v-64.9s-113.8,0-113.8,0v142.2c0,0,0,43.3,0,43.3,0,11.4-1.6,38.8,6.4,47.1,7.1,7.3,26.2,11.3,36.5,13.7v42.9h-104.1v-80.7c-7.3-8.9-17.1-19.2-24.9-27.8l-36.8-40.2c-15.9-17.6-31.9-35.1-47.9-52.6-7.9-8.6-17.1-19.3-25.2-27.4-.8-3.1-.1-24.8-.1-28.8,14.7,0,30.9-.4,45.4,0,29.7,32.1,59.4,65.6,89.5,97.2v-267.8s0-84.2,0-84.2c0-11,0-22.4,0-33.1,0-9-.1-24.7-6.8-31-6.5-6.2-27.7-11.1-36.2-12.6v-43.1Z"/>
  <path class="st2" d="M325.6,196.1h147c0,0,0,43,0,43-44.9,9.4-42.6,13.8-42.6,57.5v42.9s0,145.8,0,145.8c50.4.5,102.5.2,152.9-.1v53.5c0,0-153,0-153,0v187.1c0,46.8-3.1,48,42.6,59.5v42.7s-146.9,0-146.9,0v-42.7c41.3-10.8,43.2-8.6,43.1-53.1v-29s0-104.1,0-104.1v-215.8s0-68.5,0-68.5c0-15.2,2-45.8-4.4-59.7-4.1-9-28.8-13.8-38.9-16.1v-43Z"/>
  <path class="st2" d="M141.5,288.6h124.9c9.2,9.2,19,20.4,27.9,30l43.2,46.5c0,7.5.3,16.7-.1,24,.6,3.3.2,26.4.2,32.1v30.5c0,3.9.2,12.4-.2,15.9.8,2.7.1,21.8,0,26l-73.5-79.6c-.4,15.8,0,33.8,0,49.8v103.6s0,43.1,0,43.1c0,5.9-.5,21.3.8,26.2,3.8,4.6,26.3,11,33.4,13.3.1,20.4.1,40.8,0,61.1-24.3.3-48.6.4-72.9.2-27.9.1-55.7,0-83.5-.1v-61.4c6.3-1.5,32.2-8.6,36.4-12.1,2.1-5.2,1.2-41,1.1-49v-76.9s0-89,0-89c0-8.6.8-52.6-1.4-59.9-1-3.3-29.3-10.2-36-12-.5-20.4-.2-41.7-.2-62.2Z"/>
  <path class="st1" d="M141.5,288.6h124.9c9.2,9.2,19,20.4,27.9,30l43.2,46.5c0,7.5.3,16.7-.1,24-19.7-20.7-38.8-43.1-58.7-63.8-7.6-7.9-15.9-18-23.7-25.4-33.9,0-68.5.3-102.3-.2v42.3c10.4,2.8,30,6.5,35.8,15.8,1.3,2.1,1.9,9.9,1.9,12.4.2,20.6,0,41.3,0,61.9v118.7s0,55,0,55c0,43.6,4.9,39.7-37.9,52.4v41.9c44.4-.1,89.8-.5,134.2,0v-42.4c-9-2.9-29.8-8.2-32.6-16.4-2.6-7.7-1.7-31-1.7-39.7v-56.4s0-170.2,0-170.2c27.8,29.7,57.7,62,84.8,92.4.8,2.7.1,21.8,0,26l-73.5-79.6c-.4,15.8,0,33.8,0,49.8v103.6s0,43.1,0,43.1c0,5.9-.5,21.3.8,26.2,3.8,4.6,26.3,11,33.4,13.3.1,20.4.1,40.8,0,61.1-24.3.3-48.6.4-72.9.2-27.9.1-55.7,0-83.5-.1v-61.4c6.3-1.5,32.2-8.6,36.4-12.1,2.1-5.2,1.2-41,1.1-49v-76.9s0-89,0-89c0-8.6.8-52.6-1.4-59.9-1-3.3-29.3-10.2-36-12-.5-20.4-.2-41.7-.2-62.2Z"/>
</svg>