<?xml version="1.0" encoding="UTF-8"?>
<svg id="Layer_1" xmlns="http://www.w3.org/2000/svg" xmlns:xlink="http://www.w3.org/1999/xlink" version="1.1" viewBox="0 0 1024 1024">
  <!-- Generator: Adobe Illustrator 30.3.0, SVG Export Plug-In . SVG Version: 2.1.3 Build 182)  -->
  <defs>
    <style>
      .st0 {
        fill: #fef8c6;
      }

      .st1 {
        fill: url(#linear-gradient1);
      }

      .st2 {
        fill: #f2cf83;
      }

      .st3 {
        fill: url(#linear-gradient);
      }

      .st4 {
        fill: #d2e8f2;
      }

      .st5 {
        fill: #fff;
      }

      .st6 {
        fill: #b5933f;
      }

      .st7 {
        fill: #020d1b;
      }

      .st8 {
        fill: #0a3669;
      }

      .st9 {
        fill: #a2cbe6;
      }

      .st10 {
        fill: #00152e;
      }
    </style>
    <linearGradient id="linear-gradient" x1="1519.9" y1="-333.3" x2="1513.4" y2="-308" gradientTransform="translate(-63.5 608) scale(.5 -.5)" gradientUnits="userSpaceOnUse">
      <stop offset="0" stop-color="#cde5f5"/>
      <stop offset="1" stop-color="#f6f8fa"/>
    </linearGradient>
    <linearGradient id="linear-gradient1" x1="418.7" y1="266.4" x2="437.1" y2="241.4" gradientTransform="translate(-63.5 608) scale(.5 -.5)" gradientUnits="userSpaceOnUse">
      <stop offset="0" stop-color="#cfe7f4"/>
      <stop offset="1" stop-color="#f1f4fc"/>
    </linearGradient>
  </defs>
  <path class="st6" d="M968.4,29.6c-16.3,1.3-36.7,14.8-51.7,21.8-3.7,2-6.9,5.1-10.6,6.9-4.7,2.4-15.4,4.4-19.5,7.7-9.6,7.9-18,11-29.4,15.3-3.4,1.3-11,8.6-13.5,9.3-12.3,3.2-19.7,8.1-29.7,15.5-2.7,2-13.3,2.8-16.9,5.5-5.6,2.1-11.5,8.3-16.7,10.4-5.8,1.9-11.1,3.1-16.8,5.4-7.6,3.1-17.2,12.9-25,13.7-11.6,1.2-19.2,11.2-27,14.5-10,4.2-16.9,5.1-27.6,11-30.9-38.1-75-56.7-123-61.6-69.7-6.6-139.2,14.4-193.6,58.4-42.4,34.5-69.8,77.6-88.2,128.7-.5-8.1-1.6-16.4-2.7-24.5-7.3-54.1-15.4-108.1-28.2-161.3-4.1-16.8-7.9-32.5-14.4-48.7-9-22.9-30.1-32.8-53.5-34.2-36.3-2.1-80.5,34.9-69.2,73.4,27.5,93.3,66,183.3,104.2,272.7-5,4.3-6.6,7.3-10.4,12.9-26.1,8.8-43.7,24.6-56.1,49.5-3.5,7.2-6.3,14.7-8.5,22.3-22.9,19.7-36.1,37.5-37.6,68.5,0,6.9-1.2,13.4-2.3,20.1-2,11.9-15.4,31.4-4.4,41.7,39.7,37.2,129.4,36.5,169,.5,1.9-1.7,3.7-3.5,5.4-5.5,4.9,3.8,7.3,5.2,12.8,7.9-1.5,3.2-3.3,6.6-4.6,9.9-6.3,16.1,1.6,32.9,17.1,39.8,11,4.9,20.9,4.8,32.6,3.6,5.9,11.4,30.9,50.6,27,61.7-.5,1.3-1.2,2-2.4,2.6-8,.8-16.5-14.6-20.9-20.6-11.8-16.2-26.1-46.1-49.2-46.1-10.1,0-14.1,7.9-15.9,16.6-15.3-18.6-29.4-28.7-55.1-32.9-24.5-4-59.4,15.8-39.5,43.9,9.2,13,31.7,10,47.3,17.2-27.4,3-52.5,17-69.6,38.7-11.5,14.7-23.7,39.3-11.9,57,0,12.9,2.6,21.7,11.2,31.5,1.6,1.5,3.4,3.2,5,4.8,8.9,7.1,20.2,10.2,31.6,8.8,12.5-1.6,20.1-7.1,27.7-16.7,10.4,1.9,15-1.3,21.5-8.8.9.1,1.7.3,2.6.5,18,3.7,27.9,27.6,24.2,44.3-.8,3.5-3.2,10.2-8,7.5-3.5-1.9-6.7-5.7-9.6-8.5-6.8-6.6-15.1-11.4-24.2-14.1-9.3-2.6-20.4-2.8-29,2.1-10.3,5.9-12.5,17.4-2.7,25,2.7,2.1,12,7,10.6,11.2-1.8,5.4-18,3.8-22.5,3.9-14.9.3-29.5,4.4-42.4,11.9-5,2.9-19.6,12.6-14.7,19.5,2.7,3.8,16.8,6.7,21.8,8.1,10.8,3,21.5,6.4,32,10.1,27.7,9.9,52.6,24.2,79.9,34.8,57.5,22.2,120.9,36.4,181.8,45.1,46.2,6.6,93.9,4,138.6-8.7,17.3-4.9,34.3-12.7,51.9-15.7,8.3-1.4,16.8-1.9,25.2-1.6,4.8.1,11.9,1.9,15.7-1.2,2.3-5-5-10.3-8.4-13.5,9.6,1.7,19.1,4.2,28.6,6,14.2,2.6,28.7,3.4,43.1,2.3,31-2.4,58.2-14.7,85.9-27.8,10.7-5,26.1-11.8,37.4-14.9,6.4-1.7,12.8-3.2,19.3-4.3,4-.7,8.2-1.2,12-2.2,12.6-3.2.5-15.3-4.9-19.1-15.8-11.2-34.6-9.6-52.6-6.8,17.2-20.6-7.8-38.6-27.5-38.3-14,.2-20.2,1.6-33.3,7-2.2-25-28.1-22.6-44.5-13.1,17.8-21,20.8-31.8,51.2-16.7,37,18,77,25.9,116.6,9.5,18.6-7.7,48.6-32.1,42.1-57.5-1.5-6-10.8-6.2-16.2-7.1-4.3-.7-8.5-1.9-12.5-3.4-21.5-8.2-31.1-24.4-48.8-37.5-9-6.6-15.5-9.4-25.8-12.8,12-31.6,4.2-59,19.2-87.8,3.6-6,8.8-11.2,13.8-15.9,3.7-3.4,10.2-8.5,8.2-14.3-8.7-24.6-37.6-27.8-59.6-22.1-37.3,9.7-67,35.8-86.6,68.4-1.1,1.8-2.9,5-4,6.5-3.9,7.4-7.6,14.4-10.4,22.3-.5,1.4-1.8,2.6-3.3,3l-.7-.5c-1.3-7,9.7-19.2,13.7-25.5,1-1.8,2.8-4.4,3.9-6.2,4.2-8,6.9-17.5,4.1-26.5-1.6-5.2-5.2-9.6-10-12.1-17.3-8.8-36.6,8.3-43.2,23.2-3.4,7.8-4.8,13.6-5.8,22-5-1-7.2-1.1-12.3.5,13.5-28,28.1-55.5,42-83.4,2.5-5,4.4-10.2,6.2-15.4.5-1.4,2.8-8.9,3.4-9.6,6-7.4,12.4-14.3,17.7-22.4,20.1-30.8,27.9-70.7,15.6-105.9-8.2-23.6-25.6-42.8-48.2-53.2-4.1-1.9-7.4-3.1-11.7-4.4,4.1-3.8,6-6.2,9.4-10.6,15.8-6.1,28.1-15.6,35.1-31.5,5.9-12.9,6.3-27.7,1.1-41-1.7-4.2-3.6-7.7-5.9-11.6,1.6-9.7,1.4-15.1-1-24.6,1.5-1.3,9.1-8.4,10-8.9,7.5-4,12.7-5.5,19.9-10.6,3.5-2.5,10.3-10.1,12.2-11.2,6.9-3.8,12.5-5.8,19.6-10.7,5.3-3.6,9.4-9.8,13.3-12.7,4.8-3.4,11.6-5.2,17.4-9.6,6.3-4.8,9.3-8.7,14.7-13.6,2.6-2.4,11-5.4,15.2-8.6,6.3-4.7,9.5-9,14.9-13.8,2.3-2,10-5.3,13.6-8.1,5.5-4.3,8.4-8.5,13.1-12.8,2-1.8,9.1-5,12.2-7.4,5.6-4.4,8.4-8.6,13.2-13.2,2-2,8.8-5,11.9-7.4,5.8-4.6,9-9.5,14.1-14.4,2.2-2.1,7.8-5.5,10.2-7.6,8.4-7.4,29.5-24.9,30.6-36,.2-2.1-.4-4.1-1.7-5.7-1.1-1.3-3.3-2.4-5.1-2.3ZM936.8,71c-1.6,1.4-6.7,4.1-7.4,4.8-5.1,5.6-8.8,10.7-14.9,15.5-2.7,2.1-9.2,4.7-11.2,6.6-4,3.7-8.3,10-12.7,13-8.4,5.7-11.9,4.7-18.1,13.4-4,5.7-15.2,11.9-21.8,14.6-7.7,10.9-17.1,17.4-29.5,22-7.4,10.3-19.9,19.1-31.9,23.1-5.2,6.3-15.3,16.5-22.9,19.3-11.3,4.2-8.4,3.5-16.6,11.2-7.3,6.8-16.1,11.8-25.7,14.6-5,5.9-7.2,7.6-13.6,12.4,3.7,10.5,3.9,18.7,1.7,29.5,3.1,4,5.2,7.6,6.9,12.3,4.2,11.7,3.5,24.7-1.8,35.9-6.8,14.3-18.4,22.4-32.9,27.6-5,7.8-12.1,14.5-19.3,20.3,71.7,14.4,90.4,90.5,57.2,148.7-6.3,11.1-13.2,19.1-21.3,28.5-.5.6-4,11-4.7,12.8-2.4,6.4-5,12.7-8,18.8-16.1,33.5-54.9,98.6-55.8,134.4,1.5-1.4,5.2-4.6,6.4-7.3,6.1-13.5,4.8-39,25.1-39.7,3,0,6.4,4,8.1,6.5,2.6-8.7,2.5-17.5,5.8-26.5,3.6-10.1,9.8-19.6,19.8-24.4,7.2-4.2,19.2-2.6,22.3,6.5,6.6,19.4-14.9,34-20.9,50.3-2.3,6.3-1.8,12.4,4.8,15.1,2.8,1.1,6.9-1.3,9.3-2.6,2.6-6.1,5.1-12.2,8-18.2,16.5-34.1,45.6-65.2,81.9-77.7,13.4-4.6,32.2-7.9,45.3-1.1,7.3,3.8,12,8.3,14.5,16.2-6,7.3-14,11.6-19.5,20.5-19.4,31.8-9.3,65.2-24.9,99.7,37.8,7.3,44.8,32.4,75.2,49.2,3.4,1.9,5.7,2.4,9.8,4.1,3.2,1.9,19.8,2.7,21.2,5,7.2,11.7-15.8,34.8-21,38.5-33.4,24.2-75.6,21.9-112.1,7-12.2-5-24.2-11.6-37-13.9-19.6-3.4-31,18.3-42.7,32.1-7.3,8.7-15.4,16.7-24.2,23.8l-10.7,7.9c28.8-4.3,33.5-24.1,59.2-32,5.3-1.4,12.3-2,17,1.2,9.8,6.7,6.8,14,1.3,22.2,4.9-1.2,11.4-3.5,17.5-6.5,15-7.3,53.7-10.2,53.4,14.6-1.6,7.1-2.2,5.4-7.2,9.8-7.9,7-38.6-8.2-35.9,8.2.7,4.6,16.7,4.8,22,4.2,18.7-2.1,39.2-8.5,58.2-3.8,3.9,1,19.1,6.6,17.4,11.9-.9.7-2.2,1.6-3.5,1.7-54.6,6-94.8,44.6-150.9,47.5-11.7.6-23.4,0-35-2-20.1-3.4-32.4-9.8-53.3-4.7,7.6,3.5,12.8,7,18.5,13.1-11.8.2-19-.9-31.6,1.2-16,2.8-29.2,8.6-44.5,13.5-19.4,6.2-39.3,10.4-59.5,12.5-58.3,6.3-115.5-5.2-172-18.6-27.8-6.6-54.8-14.3-81.6-24.2-27.4-10.1-52.9-24.1-79.8-34.8-12.1-4.7-24.4-8.7-36.9-12.1-5-1.4-19.3-3.4-20.8-7.8.8-3.6,5.1-5.7,8-7.5,8.5-5,17.4-8.5,27.2-10.2,4-.7,8.2-1.2,12.3-1.4,8.2-.3,20.1,1.9,26.7-4.2,2.4-2.2,3.6-4.8,3.7-8,.2-9.3-10-11.4-15.1-16.9-1.3-1.4-2.2-3.1-2.1-5,.2-2.3,1.8-4.4,3.5-5.8,3.8-3.3,9.1-4.1,14-4,28.6.3,37.5,24.8,49.3,25.3,3,.1,5.8-1,7.9-3.2,4.9-4.9,6.4-14.8,6.1-21.4-.4-12.4-5.9-25.8-15.2-34.3-7.4-6.7-14.4-8.9-24.3-8.4-5.5,8.4-10.2,11.9-19.7,6.5-7.1,12.7-17.3,19.9-32.3,19-9.2-.5-17.9-4.7-24-11.7-7.9-9.1-9.6-18-8.9-29.6-14.1-16.4,5.9-46.4,18.2-58.4,20.2-19.6,43.7-28,71.4-28-9.1-17.3-26.5-17.1-43.5-19.9-14.3-1.3-24.4-19.5-13.6-30,23.9-23.3,65-4,82.5,18.4,6.8,8.7,14,16.8,21.6,23-2-3.5-4.1-7-5.8-10.8-2.5-5.7-4.2-12.7-1.6-18.7,1.1-2.6,3.7-4.6,6.3-5.5,22.8-7.6,47.1,56.6,66.3,66,2.7,1.3,5.9,2.2,8.8,1,2.9-1.2,5.1-4.3,6.1-7.1,5.4-14.7-12.4-41.5-19.6-54.6-3.4-6.2-6.5-12.6-9.6-18.9-.9.2-1.7.4-2.6.6-29.6,6.6-61.6-11.5-39.6-42.9-.7-3-1.3-6.2-2-9.3-9.2-2.8-12.5-5.2-18.8-12.4-3.3,4.7-7.2,8.9-11.6,12.6-24.7,20.8-62.2,25.8-93.5,23.3-19.3-1.5-48.3-10.4-62.7-24.3-4.4-4.3-2.1-12.2.1-17.1,7.3-16.4,7.7-30.6,9.1-48,1.9-23,18.3-42.1,36-55.9,3.1-12.6,8.4-24.5,15.6-35.2,10.6-15.6,28.3-30.6,47.3-34.2,3.9-7.8,7.7-12.1,14.4-17.5-32.9-79.8-68.1-158.6-94.5-240.9-4.3-13.4-11.5-32.4-13-46.2-1.1-9.7,6.7-23.8,13.3-30.9,13.6-14.4,27.5-21.2,47.1-22.2,18.2-.2,39.2,8.4,47,25.9,7.3,16.4,11.5,34,15.8,51.4,11.4,45.9,18.5,92.7,25.3,139.4l10.9,76.8c4.1-13.7,8.2-27.3,13.6-40.6,20.1-50.3,50.4-92.6,94.7-124.3,53.4-38.2,125-55.5,189.8-44.7,40.4,6.7,81.6,26.2,105.8,60.4,5.8-1.8,8.8-3.8,14.1-6.5,6.5-3.3,12.7-5.2,19.9-6.2,10.5-10.2,20.4-14.5,34.6-17.4,9.8-9.2,20.9-14.9,34.3-16.6,10.1-9.3,19.9-14,33.4-16.1,8.1-8.6,18.9-13.8,30.4-15.9,9-9.2,17.9-12.8,30.1-15.7,13.1-12.8,28.5-14.1,43.4-24.6,5.4-3.8,42.7-22.4,46.2-19v1.4c-5.2,10-21.5,24.1-30.4,31.8Z"/>
  <path class="st5" d="M705.1,682.2l.7.5c1.4-.4,2.8-1.6,3.3-3,2.8-7.9,6.5-14.9,10.4-22.3l-.7-.7c-4,6.2-15,18.5-13.7,25.5Z"/>
  <path class="st2" d="M719.5,657.5c1.1-1.5,3-4.7,4-6.5l-.8-.4c-1.1,1.8-2.9,4.4-3.9,6.2l.7.7Z"/>
  <path class="st7" d="M921,56.9c-14.9,10.6-30.3,11.8-43.4,24.6-12.2,2.8-21.1,6.4-30.1,15.7-11.5,2.1-22.3,7.4-30.4,15.9-13.5,2.2-23.3,6.9-33.4,16.1-13.4,1.7-24.5,7.4-34.3,16.6-14.2,2.9-24.1,7.3-34.6,17.4-7.2,1-13.4,2.9-19.9,6.2-5.3,2.7-8.3,4.7-14.1,6.5-24.2-34.2-65.4-53.6-105.8-60.4-64.8-10.8-136.5,6.5-189.8,44.7-44.3,31.7-74.6,74.1-94.7,124.3-5.4,13.4-9.4,26.9-13.6,40.6l-10.9-76.8c-6.8-46.8-13.9-93.5-25.3-139.4-4.3-17.4-8.5-35-15.8-51.4-7.8-17.5-28.7-26.1-47-25.9-19.6,1-33.6,7.8-47.1,22.2-6.6,7.1-14.4,21.2-13.3,30.9,1.6,13.8,8.7,32.7,13,46.2,26.4,82.3,61.5,161.1,94.5,240.9-6.7,5.4-10.5,9.7-14.4,17.5-19,3.6-36.7,18.5-47.3,34.2-7.2,10.7-12.5,22.7-15.6,35.2-17.6,13.8-34.1,32.9-36,55.9-1.4,17.4-1.7,31.6-9.1,48-2.2,4.9-4.5,12.8-.1,17.1,14.4,14,43.5,22.8,62.7,24.3,31.4,2.5,68.9-2.5,93.5-23.3,4.4-3.7,8.3-7.9,11.6-12.6,6.4,7.2,9.7,9.6,18.8,12.4.6,3,1.3,6.3,2,9.3-22,31.4,10,49.5,39.6,42.9.9-.2,1.7-.4,2.6-.6,3.1,6.4,6.2,12.7,9.6,18.9,7.2,13.1,25,39.9,19.6,54.6-1,2.9-3.2,6-6.1,7.1-2.9,1.2-6.1.3-8.8-1-19.1-9.3-43.4-73.5-66.3-66-2.7.9-5.2,2.9-6.3,5.5-2.6,6-.9,13,1.6,18.7,1.6,3.7,3.7,7.3,5.8,10.8-7.6-6.2-14.8-14.2-21.6-23-17.4-22.3-58.6-41.7-82.5-18.4-10.8,10.5-.7,28.7,13.6,30,17,2.8,34.4,2.7,43.5,19.9-27.7,0-51.2,8.4-71.4,28-12.3,12-32.3,42-18.2,58.4-.7,11.6,1,20.6,8.9,29.6,6.1,6.9,14.8,11.1,24,11.7,15,.9,25.2-6.3,32.3-19,9.4,5.4,14.2,1.9,19.7-6.5,10-.5,16.9,1.6,24.3,8.4,9.3,8.4,14.7,21.8,15.2,34.3.2,6.6-1.3,16.5-6.1,21.4-2.1,2.1-4.9,3.3-7.9,3.2-11.8-.5-20.6-25-49.3-25.3-4.8,0-10.2.8-14,4-1.7,1.5-3.3,3.5-3.5,5.8-.2,1.9.8,3.6,2.1,5,5,5.5,15.3,7.6,15.1,16.9,0,3.2-1.3,5.8-3.7,8-6.6,6.1-18.5,3.9-26.7,4.2-4.1.2-8.3.7-12.3,1.4-9.7,1.7-18.7,5.3-27.2,10.2-2.9,1.7-7.2,3.9-8,7.5,1.5,4.5,15.8,6.4,20.8,7.8,12.5,3.4,24.8,7.4,36.9,12.1,27,10.7,52.5,24.7,79.8,34.8,26.9,9.9,53.8,17.7,81.6,24.2,56.6,13.4,113.7,24.9,172,18.6,20.2-2.1,40.1-6.3,59.5-12.5,15.3-4.9,28.5-10.7,44.5-13.5,12.5-2.2,19.7-1,31.6-1.2-5.7-6.1-10.9-9.6-18.5-13.1,21-5.1,33.3,1.3,53.3,4.7,11.5,2,23.3,2.7,35,2,56.1-2.9,96.3-41.5,150.9-47.5,1.2-.1,2.5-1,3.5-1.7,1.7-5.3-13.5-10.9-17.4-11.9-19-4.6-39.5,1.8-58.2,3.8-5.3.6-21.2.3-22-4.2-2.7-16.5,28-1.3,35.9-8.2,5-4.4,5.6-2.7,7.2-9.8.3-24.8-38.4-21.9-53.4-14.6-6.1,3-12.6,5.3-17.5,6.5,5.5-8.2,8.5-15.5-1.3-22.2-4.7-3.2-11.7-2.6-17-1.2-25.8,8-30.4,27.7-59.2,32l10.7-7.9c8.8-7.1,17-15.1,24.2-23.8,11.8-13.9,23.1-35.6,42.7-32.1,12.9,2.3,24.8,9,37,13.9,36.5,14.9,78.7,17.2,112.1-7,5.2-3.8,28.2-26.8,21-38.5-1.4-2.3-18.1-3.1-21.2-5-4.1-1.6-6.4-2.2-9.8-4.1-30.4-16.7-37.5-41.8-75.2-49.2,15.6-34.5,5.5-67.9,24.9-99.7,5.5-9,13.5-13.2,19.5-20.5-2.6-7.9-7.3-12.4-14.5-16.2-13.1-6.8-32-3.5-45.3,1.1-36.2,12.5-65.4,43.7-81.9,77.7-2.9,5.9-5.4,12.1-8,18.2-2.4,1.3-6.5,3.7-9.3,2.6-6.6-2.7-7.1-8.7-4.8-15.1,6-16.2,27.5-30.9,20.9-50.3-3.1-9.1-15.1-10.7-22.3-6.5-9.9,4.9-16.1,14.3-19.8,24.4-3.3,9-3.1,17.8-5.8,26.5-1.7-2.5-5.1-6.6-8.1-6.5-20.4.7-19,26.2-25.1,39.7-1.2,2.7-4.9,5.9-6.4,7.3.9-35.8,39.7-100.9,55.8-134.4,3-6.1,5.6-12.4,8-18.8.7-1.8,4.2-12.2,4.7-12.8,8.2-9.5,15-17.4,21.3-28.5,33.2-58.3,14.5-134.3-57.2-148.7,7.2-5.8,14.3-12.5,19.3-20.3,14.5-5.1,26.1-13.3,32.9-27.6,5.4-11.2,6.1-24.2,1.8-35.9-1.7-4.8-3.8-8.3-6.9-12.3,2.2-10.8,2-19-1.7-29.5,6.3-4.7,8.5-6.5,13.6-12.4,9.6-2.8,18.4-7.8,25.7-14.6,8.3-7.7,5.3-7,16.6-11.2,7.6-2.8,17.7-13,22.9-19.3,12-4,24.5-12.8,31.9-23.1,12.5-4.6,21.8-11.1,29.5-22,6.6-2.6,17.8-8.9,21.8-14.6,6.2-8.7,9.7-7.7,18.1-13.4,4.4-3,8.8-9.3,12.7-13,2-1.9,8.5-4.6,11.2-6.6,6.2-4.7,9.8-9.9,14.9-15.5.6-.7,5.7-3.4,7.4-4.8,8.9-7.7,25.2-21.8,30.4-31.8v-1.4c-3.5-3.4-40.8,15.2-46.2,19ZM222.4,335.2c-9.7-23.3-19.3-46.6-28.8-70-19.2-47.3-38-94.1-53.2-142.9-2.3-7.3-4.9-14.8-6.8-22.2-2.5-8.2-4.6-13.5-2.5-22.1,1.9-6.8,4.5-10.4,8.8-15.9l2.7,7.9c1.3,8.5,19.4,64.2,23.3,71.3-2-7.6-4.7-15.7-6.9-23.4-4.7-17-9.2-34.1-13.3-51.3-.7-2.8-1.1-5.6-1.5-8.4,3.1-2.6,5.1-4.3,8.6-6.3,15.4-11.4,45.3-10.2,57.5,5.5,4.8,6.3,9.4,23.3,11.6,31.1,25,87,33.4,177.9,48.3,266.8-1.6.1-5.1.3-6.5.8-1.4.5-2.3.5-3.7.1-1.3.8-11.4,3.6-16,6-6.5-15.9-12.1-32.3-19.5-47.7-1.7-3.5-3.3-8.9-5.3-12.3l-.2.5c6,20.5,14.7,41.1,21.5,61.4l-4.8,3.6c-4.4-9.4-9.2-22.2-13.4-32.3ZM208,403.4l-2.8,6.6c-1.6,5.8-3,11.6-4.3,17.5-1.7,7.9-1.9,14.7-7.1,21.2-8.6,1.6-15.9,2.4-24.7,4.2l-6.7,2.1c8.4-24.3,20.7-42.4,45.6-51.6ZM247.6,573.9c-21.3,16.9-56.5,20.6-83.1,18-17.1-1.7-26.4-6.9-41.7-13.2-5.4-2.3-11.9-4.9-9.2-11.6,7.8-19.1,11.2-39.2,17.2-58.7-3.9,5.4-5.5,9.5-8.4,15.4l.9-8.4c.9-10.3,6-22.8,12.5-30.7,15.4-19,27.8-22.8,50.6-25.7l1.3-.2.3.6c-1.1,2.6-4.4,6.1-6.3,8.6.5,1,.3.8.5,1,1.4-.7,2.9-1.5,4.3-2.3,21-12.8,20.8-21.6,25.8-43.3,5-20.9,14.2-39,33.1-50.3,16.8-10,45.4-14.3,56.9,5.7,1,1.2,1,1.4,1.3,3l-.3.3c-12.6-3.7-14.8-2.4-27.6-.1,1.5.1,6.3.4,7.3.9,18.4,2.4,33.8,12,32.2,32.8-1.6-1.3-3.6-3-5.4-4.1-9.3-3.9-14.1-4.5-24.5-4.1,5.9,1.8,21.1,7.6,24.3,13.1,8.2,8.7,10.1,16.6,4.1,27.2-18-1.9-33.1,0-47.6,11.8-7.6,6.2-16.9,18-17.9,27.8-1.4,14.2-7.4,20.9-17.9,30.7,6.3-1.9,8.2-2.4,13.5-6-1.6,24.5-10.3,44.4-28.8,61.2-5,4.6-9.7,7.2-14.9,11.1,6.2-1.9,12.3-4.2,18.3-6.9,17.4-11.6,27.3-23.9,33.8-43.7,2.7,6.1,5.4,9.8,10.9,13.5,0,2.8.3,4.8.6,7.5-4.9,8.3-8.5,13.2-16.2,19ZM301.5,365.8l.8-.6c5.5-.7,10.3-.3,15.2,2.6,5.1,3,8.8,7.9,10.1,13.7,1.3,5.5.2,10.3-2.8,15l-1.4,1.1c-5.5-2.6-10.9-18.6-14.9-24.2-1.9-2.7-5.9-5.3-7.1-7.5ZM313.4,622.6c-4.7-.3-12.1-2.3-15-6.2-6.6-8.8-2-17.5,5.1-24.1,7.6-7.3,18.6-10.6,29-10.7,6.6,0,15.4,2.4,19.9,7.2,7,7.6,2.4,17.6-4.5,23.4-9.5,7.9-22.2,11.2-34.4,10.3ZM308.5,579l-4.6,2.6c-1.2,1-1.1,1.1-2.4,1.5-1.2-3-3-12.3-3.7-15.9.9-1.4,2-2.6,3.1-3.9l1.8-1.6c1.4,1,5.1,14.5,5.9,17.3ZM306,559.5c2.7-1,8.8-3.3,11.6-2.3.7.3.6.8,1,1.7.5-.7,1.5-1.3,2.2-1.9,3.4.7,5.4,1.2,8.7,2.2,1.9,5,3.7,9.7,5.9,14.5-2.3-.1-8.9-.2-10.4-.4l-1,.3c-5.5,1.8-8.3,2.2-14,4.5l-3.9-18.7ZM202.6,663c-5.2-.5-10.2-1-14.7-4-2.2-1.5-4.5-3.6-4.9-6.3-.4-2.7,1-5.4,2.6-7.4,4.2-5.4,10.9-6.7,17.3-7.5,2.6-.3,5.5-.2,8.1,0,27.3,2.4,44.9,24.4,61.3,43.9-7-1.5-13.5-2.4-20.7-1.5-3.2.7-5.7,1.9-8.4,3.6-11-15.8-21.8-19-40.5-20.8ZM644,707.2c5.3-8.9,4.3-30.2,14.6-34.6,12.9-5.5,8.4,16.1,7.1,20.9,5.1-5.3,8.8-10.2,11.3-17,5.8-15.6,3.8-36.5,18.8-47.5,14.7-10.9,21.7,3,13.6,16.4-8.4,14.1-27.4,32.8-16.2,49.7,3.7,5.6,10.9,4.8,16.5,3.2-.6,2.3-3.6,13.8-4.4,15.2-2.2,16.1-5,26.9-5.8,44.2-18,6-38.2,7.8-52.8-6.6,3-11.3,6.2-19.7,13-29.3,5.2-7.3,15.4-9.4,17.2-17.8-18.8,2.4-29.7,26.9-34.3,42.8-6.5-9.1-8.8-15.8-10.2-26.9,5.9-4,8.2-6.6,11.6-12.4ZM646.5,629.7c-21,43.6-49.9,107.7,4.7,139.6,26.1,11.1,61-2.3,83.6-16.6.8-1.3,12.8-11.5,15-13.6-8.6,3.5-21.5,10.1-29.7,12.8l-7.8,3.1c2-46.2,19.6-94.4,54.2-126.3,16.9-15.6,59.4-40.4,81.3-22.2-46.5,35.8-17.5,92.8-49,131.5,8.8,0,14.1.4,22.6,2.9,35.1,10.4,51.8,53.1,91.9,52.6-7.3,15.9-20.4,25.1-36.4,30.8-34.1,12.3-67,2.2-98.5-11.8-5-2.2-17.8-7-23.1-6.5l-7.8-.3v-.4c8.9-5,12.4-6.7,22-9.8-5.6-.2-11.1-.4-16.6.9-19.5,4.9-32.5,23.3-44.4,38.2-13.4,16.8-27.3,30.3-45.9,41.3-7.9-10.4-14-8.7-25.1-8.9l-2,.6c-1.8,1.3-5.4,3.1-6.8,4.4-9.1,8.7-25.2,16.2-31.2-1.2-1-3.4-1-6.6-1-10.1-.6-9.8-2.3-18.4-11.6-23.8-4.6-2.7-10.1-3.4-15.2-1.9-6.5,1.9-9.8,6.1-12.9,11.6-1.8,5.7-1.6,9.2-1.2,15-9.9-6.6-12.2-13.7-11.2-25.1,5.1-20.3,17.6-13.8,24.4-31.1,2.7-7-4.3-16.7-11.5-17.7-16.7-2.6-23.9,10.7-28.2,23.3-1.5,1-2.6,2.1-4.3,2.2-5-5.3.8-63.9-30.8-64.5-5,0-8.4,1.6-12.1,5-.9.8-1.9,2.1-2.6,3.1-5-11.6-10.5-20.9-19.4-30-5-5-13.7-11-16.5-17.6-6.6-15.3,2.7-38.1-17.3-46.9-4.4-1.9-10.7-1.9-15,.4-15.8,9.2-12.7,35.2-5.3,48.9,3.4,6.2,9.1,12.6,14.7,16.4-8-14.9-18.5-32.2-14.3-49.9,1-6.7,10.9-12.4,17-9.4,12.3,6.1,8.9,23.6,10.6,34.9,2,13.7,12.5,19.5,21.7,28.7,3.7,3.8,7.1,7.9,9.9,12.4,11,16.7,8.5,24.7,15.9,41.1-1.1-10.4-2.1-26.6,11.5-29.2,3.2-.5,7.5,1.1,9.8,3.1,8.4,7.6,11,23,11.5,33.9,1.2,27.4,9.3,53.3,31,71.4,3.6,3,15,11.5,19.3,6.4,2-7.4-7.5-21.1,3.8-27.2,3-1.6,7.7-2.8,11-1.5,17.6,7.1,3.7,27.8,15.5,39.8,7,7.1,15.2,10.3,24.7,5.4,9.8-5.1,17.5-15.9,30.2-12.2,5,1.3,7.5,7.2,10.5,10.8,6.6,7.7,21.4,3.7,29.4,0,4.9-2.2,9.5-5,13.8-8.2,5.5-4.1,36.5-33.2,48-18.8,4.2,5.2-12.4,15.2-12.4,19.5.9,1.7,2.2,2.6,4,3.2,14.9,4.3,38.9-20.9,64.4-12.7,3.4,1.1,7,2.7,8.9,5.9.8,1.4,1.3,3.3.8,4.9-.6,1.9-1.8,3.1-3.6,3.9-6.1,2.7-13.4-.9-19.7-1.3-8.2-.5-20.5,2.7-23.8,11.2-1,2.4-.9,5.1.3,7.4,9.9,20.2,61.1,1.7,78.3,4.2,2.3.4,4.5-.2,6.9.9-3.7,1-7.2,1.3-10.8,2.2-41.9,10.7-76.5,37.8-120.9,40.5-10.3.6-20.6,0-30.7-2.1-16.4-3.3-35.2-11-51.9-6.9-18.5,4.5-37,17-55.5,24.5-44.5,18.2-90.4,22.5-138,16.9-16-1.9-33-5.1-48-11.2,11.6,0,22.8.3,34.4.4-26.8-14.1-28.4-14-57.4-10-23.9,3.5-48.2-2.7-67.5-17.1l-3.6-2.4c10.1-5.6,18.9-13,24.9-23-4.8,4-12.8,8.1-19,8.6-1.6.4-5.9,2.4-7.9,3.1-6.7,2.4-13.5,4.5-20.7,5.1-6.8.4-15.1.8-21.8-1-22.3-5.8-42.8-18.4-64.4-26.6-18.3-6.9-33.2-11-52.3-13.5,15.8-7.9,29.2-9.1,46.6-9,13-.8,23.4-7.1,23.6-21.2.1-10.9-15.1-17-15.2-20.2,2-2.2,4.3-2.7,7.1-2.9,17.8-1,28.5,11,40,22.3,8,6.8,18.6,5.9,24.4-2.6,16-23.6,4.9-56.5-15.9-72.7-5.7-3.9-8.3-5.2-15.2-6.4,11.2-8.5,21.1-10.6,35.2-8.6,15.8,2.3,30.1,10.8,39.7,23.5,12.8,17,17.4,39.8,14.3,60.6-3.8,25.1-17.7,44.9-39.8,57.3,38.5-12.4,54.9-61.1,43.1-97.4-4.5-13.9-10.9-24.3-21.7-34,15.8,4,8.6-10.6,4.5-17.9,38.3,10,59.8,49.4,56.7,87.1-1.3,15.2-4.8,26.4-11,40,1.7.6,2.1.7,3.7,1.7l1.4-1.6c8.6-12.9,12.8-30.7,14.1-46.8,3.4-41.1-25.2-86.3-67.9-91.6-1.5-.2-5.2.4-6,1.8-3.8,6.8,6.9,13.6,6.9,19.9l-.8.6c-4.1-.2-9.5-4.2-13.5-6.3-20.3-10.8-46.5-12.6-65.1,2.8-5.7,3.8-8.8,16.6-14.9,18.4-6.5,2-7.3-12.9-7.3-16-1.4,3-2.5,6.4-3.6,9.5-3,10-7.3,18.5-17.8,22.3-6.5,2.4-13.6,2-19.8-1-10.8-5.3-15.6-16.8-14.8-28.3.6-8,3.4-14.5,7-21.5,1.4-2.8,5.3-8.1,5.8-10.4-6.5,4.1-11.7,11-16.3,17,1-14.2,5.8-25,15.4-35.8,15.4-17,36.9-27.3,59.8-28.6,7.5-1.2,18.5.7,26,2.3-2.3-2.2-4.4-3.6-4.9-6.8,1.9-8.4,19.4-5,25.1-3.6,17.6,4.5,37.3,15.6,50.4,28.1-3.4-6.8-5.9-11.3-11.1-17.4-10.3-11.9-31.5-25.2-29.9-43,.4-4.4,6.4-4.1,9.5-1.9,13.6,9.5,22.9,26,32.1,39.4,4,5.8,8.2,11.5,12.6,17,16.4,20.3,32.7,34.5,54.7,48.1-5.1-9.5-12-15.8-17.3-24.9-1.9-3.2-4.4-10.9-3-13.7,6.7-14,19.7-.8,23.2,8.2,2.7,7,3.6,9.9,5.9,16.6,2.7,7.6,12.4,22,21.1,22.8,7.2-4.9-12.3-45.6-15.6-53.3l-.6-.2c-.8,2.2.3,6.5.8,9,.4.7,2.1,6,2.7,7.4,4.3,10.8,8.1,17,8.9,28.8-20.2-12.2-8-38.4-34.4-52.4-7.9-30.2-23.2-53.9-36.1-81.4,6-3.3,8.9-6.4,13.6-11.4,6.6-8.8,8.6-17.1,4.2-27.7,2.1.2,4,.4,6.2.4,15.2,15.7,31.1,30.6,49.7,42.2,39.7,24.8,87,33.5,131,15.1,3.1.5,4.2.7,7.5.7,21.5-.4,28.3-4.1,40.8-21.7,28-7.9,41.4-13.5,64.3-31.7-5.7,12.2-11.5,24.4-17.4,36.6ZM536.5,845.7l-4-6.5c-4-7.1-6.8-15.1-7.6-23.2,1.5-1.4,3-2.9,4.4-4.3.6,3.6,1.4,7.3,2.2,10.9,1-4.9,2.1-9.8,4.3-14.4,3.1-6.5,7.6-10.7,14.4-13.2,3.2-.3,6,0,8.5,2.2,1.5,1.3,2.3,3.1,2.3,5.2,0,8.2-11.5,12-16.4,17-6.8,6.8-8.1,17.1-8.1,26.3ZM724,455.5c-.3,9.1-.8,20.2-4.1,28.7-1.4,9.8-11.4,27.6-17.1,35.8-.4,1.3-3.7,5.2-4.7,6.2,2.5-7.4,2.6-11.8,3.6-19.5v-2.5s-.5,0-.5,0c-3.8,11.9-8.6,22.7-13.9,34-14,32.3-34.6,53-67.6,66.6-4.3,1.8-9.7,3.4-13.8,5.1,2.6-2.4,13.8-13.6,15.6-14.5,1.4-3.1,3.8-6.2,5.7-9.1,2.9-4.6,5-8.8,7-13.8-3.5,4.2-22.3,24.1-25.7,25.3-4.4,4.4-9.9,8.7-13.8,13.7-4,5.3-7,11.4-11.8,16.1-3,2.9-6.6,5-10.7,6.1-8.1,2.1-14.2-.2-21.7.6-3.5.4-12.7,3.7-16.6,4.9-10.9,3.2-22.3,4.6-33.7,4.3-46.4-1-88.9-26.8-120.3-59.5,3.7-1.1,6.9-2.4,10.5-3.9l-2.1-1c-10.4-1.9-21.6.9-32.6-3.7-8.6-3.5-11.2-5.4-15.1-13.8l11,4.5c-6.6-7.6-12.2-12.5-21.9-15.9-16.9-6-35.3-1.3-41.6,16.9-15.6-7.9-18.4-22.2-9.6-36.8,3.4-5.6,8.1-9.5,13.1-13.7,1.9-2.1,5.2-4.2,7.6-5.8-13,3.8-19.5,6.6-28.5,16.7-1.8,2.8-2.6,4.4-4,7.5-11.7-17.9-.6-33.4,14-44.3,2-4,5.6-5,9.6-7-13.8,2.4-18.1,5.3-28.6,14.6l-3.2,4.1c-1.1-11.1.8-18.6,7.9-27.5,8.2-10,20.1-16.4,33-17.7,34-3.4,53.6,26.9,78.3,44.7,9.5,6.8,15.9,10.7,28,10.3,18,.5,34.1-4.7,51.4-8.4,31.8-7,72.5-8.3,99.1,13.5,2.1,1.7,4.1,3.5,6.1,5.4,0-1.4-.9-3.2-1.6-4.5-6.1-11.3-21.2-21.8-33.1-25.5-1.9-.9-5.2-1.8-7.3-2.4,15.5-27,43.2-42.1,74.2-42.9l.3-.5-.5-.7c-7.2-2.8-11.9-3.7-19.6-3.9-2.2,0-3.3.2-5.4-.2.3-1.9,1.7-3.8,2.6-5.5,14.7-26.6,40.4-41.6,69.2-49.4,1.1-.8,15.1-4.9,16.8-4.8,38.3-.8,67.2,37.2,66.1,73ZM687.6,330.8c-.3-5.1-1.4-9.8-5.6-13.2-18.8-14.9-56.6-14-79.1-12.8-45,2.4-107.5,24.8-146-8.3-5-4.3-9.3-9.5-12.6-15.2,5.7-.8,10.2-1.2,16-.9-8.5-5.3-15.7-7.6-25.8-5.1-8.2,2-15.3,7.2-19.7,14.4-2.6,4.3-3.5,7.3-4.7,12.1,6.4-7.2,10.6-11.5,19.8-14.9,6.3,25.8,12.2,50.3,44.6,48,15.8-.9,31-5.4,46.5-8.4,44.8-8.8,93-21,138.3-9.1,25.2,6.6,21.7,24.8-2,28.6-25.9,4.2-46.2,10.2-67.1,26.6,23.7-10.5,39.6-15.4,65.8-16.8-47.9,43.7-106.6,60.9-170.5,60.1,24.5,7.5,60.3,6.6,85.2-.1-19,12.5-30.5,16.8-51.5,24.2,1.3,1.5,1.1,3.4,1.2,5.7,15.7-4.5,29.1-8.8,43.6-16.8-4,5.9-6.5,10.2-9.1,16.9-21,8.4-36.8,22.5-47.1,42.6-15.6-1.9-33.5.3-48.7,3.9-26.4,6.3-55.6,19.8-79.3-1.1-3.1-2.8-8.7-6.5-11-9.9-2.6-1.8-7.5-6.4-10.1-8.7-5.3-4.6-10.6-9.2-16-13.7-.5-8.2-1.2-15.9-1.6-24.3-1.8,8.2-2.6,11.6-5.9,19.3l-8.9-4.1c3.6-9.3,3.1-17.8-.7-26.9.9-4.2,1.2-8.5,1-12.7,18.5-13,14.9-39.2-2.8-50.9-10-6.6-18.9-6.4-30.3-4.2-2.3.8-4,2-6.1.5-.6-1.9-.2-4.2,0-6.3,4.9-42.7,27.6-92.5,53.6-126.4,12.2-16,26.4-30.4,42.2-42.9,48.8-38.8,115.3-58.3,177.5-51.6,39.8,4.3,79.9,20.7,105.4,52.8-1.7.8-3.8,2-5.5,3-2.4,1.7-5.1,3.3-7.2,5.3-12.1-2.7-22.8-2.1-33.6,4.7-9,5.7-15.4,14.9-17.6,25.4-1.8,8.4-1,16.7,1.3,24.9,0-27.5,7.9-47.4,38-50.2-11,4.9-19.1,12.1-23.5,23.6-3.6,9.3-3.3,19.6.7,28.6,4,8.8,11.4,15.7,20.5,19,15.1,5.6,29.9,2.2,43-6.8,4.2-2.9,8.9-9.1,13.4-9.7,2-.6,2.5-1.1,4.2-.7,3.3,4.6,1.7,19.9.4,25.5,16.7,20.6,9.7,44.3-12.6,56.9ZM495.9,322.8l-1.4.5c-8.2,1.7-17,3.2-25.5,2.7-6.8-.4-13.7-2.6-18.2-8-4.5-5.4-4.6-11.1-4.1-17.7,2.5,1.4,4.8,3.9,7.1,5.8,5.9,4.8,12.4,8.3,19.5,10.9,4.2,1.5,8.4,2.8,12.7,3.7,3.2.7,6.9.9,9.9,2.2ZM648.2,218.1c2.3,18.3,15.7,28.4,33.4,29.5-10.7,8.3-19.3,13.4-33.2,12.4-14.6-1-29.1-16.5-25.7-31,2.4-18.4,14-25.1,30.5-29.6-3.9,6.4-5.2,11.2-5,18.6ZM708.5,221.4c-7.2-.8-13.9-4.4-18.4-10.2-.7-.9-1.5-2.1-2.2-3.1,2.5,13.6,11.3,17.9,23.9,19.5-6.2,5.1-10.5,8.2-17.9,11.3-17.7,7.3-39-.5-41-21.5.2-5,1.6-9.8,4.2-14.1,6.2-10.4,17.4-14.9,28.7-17.7-1,1.6-2.1,3.9-2.9,5.6,1.3,1.2,3.8,2.7,4.1,3.2,6.5-14.4,15-18.1,29.7-22-2.5,6-2.4,7.9-3,14.5l1,1.3c1.2-.4.6-.1,1.6-1.4.9,1.9,1.6,3.8,2.6,5.6,5,9.9,14.4,13.5,24.9,14.2-9.9,8.1-21.7,16.2-35.2,14.8ZM881.8,91c1.7,1.8,3.2,3.5,5.2,5.1,2.4.4,4.4.7,6.8.9-7.8,7.6-17.6,15.5-29.2,15.5-4.5,0-7.6-2.4-10-2.1.1,5.4,8.8,6.6,13,6.8-7.9,7.3-14.6,13.1-25.6,15.5l-2.4,5.3c-1.3,3.7-13.4,11-17.2,12.9-8.1,4-16.5,5.3-25.2,2.3-2.6-.9-6.1-3.8-7.5-3.5,2,8,12.1,10.3,19.1,10.8-14.6,14-37.7,26.8-54.3,7.7,2.3,11.6,11.2,14.8,22,15.5-7.2,6.5-13.3,10.8-22.3,14.6-10.4,4.4-25.9,2.9-32.6-7.1-3.8-6-3.4-12.3.3-18.3,6-9.6,17.1-14.6,27.8-17-1.9,5.2-1.9,6.9-2,12.2l.5,1.1h.6c.7-1.2,1.4-2.5,2.2-3.6,7.1-16.8,15.4-22.9,33.4-26.9l-1.3,5.3.3,4.3.5.2c.7-.9,1.2-1.6,2-2.5,8.1-15.8,14.8-19.4,31.9-24.3-.6,2.8-.7,4.6-1,7.4,1.6-.4,1.5-.8,2.8-2,3.1-5.5,6.3-10.7,11.8-14.2,4.5-2.9,11.2-6.2,16.5-7.2l.4.4v5.1c0,0,2.3-2.2,2.3-2.2,1.4-2.1,4.8-7.2,6.4-8.7,3.5-3.4,16.4-10.6,20.9-10.5.7,1,.3,1.7,0,3.3,1.3-.3,3-2.1,4-3,4.5-6.8,21.3-19.4,29.2-16.4,2.3,2,5.4,2.3,8.3,2.9-12.4,11.8-19.5,18.6-37.7,14.5ZM945.9,54.4c-9.1,8.3-18.3,18.3-31.4,17.3l-1-.4c.8-4.2,24.2-15.9,29-18.1,3.7-2.2,7.8-4.2,11.7-6.1-2.4,2.1-6.1,5.1-8.3,7.3Z"/>
  <path class="st4" d="M600.7,850.2c7.4,1.5,15,2.1,22.6,1.8,32.1-1.1,56.5-13.5,78.1-36.6-12.5,5.8-23.3,7.1-36.7,7.8,4.1-2,12.2-4.4,17.4-6.7,16-7.2,25.1-14,38.2-24.8-16.6,8.7-26.7,12.2-45.1,15.7-23.5,4.5-59.9,1.8-79.8-12.4,19,5.4,31,6.7,50.8,4.9-47.4-6.9-90.3-26.7-104.5-76.4,9.1,15.1,14.6,21.8,28.2,33.2-25.6-35.5-21.6-70.8-7-109.2-1.4-1-2.1-.8-3.9-1-3.2,0-4.3-.2-7.5-.7-44.1,18.4-91.4,9.7-131-15.1-18.7-11.7-34.5-26.5-49.7-42.2-2.1,0-4.1-.2-6.2-.4,4.4,10.6,2.4,18.8-4.2,27.7,5.7,11.7,11,23.6,16.1,35.7,3.6,8.8,25.9,71.8,29.2,73.5-.5-2.4-1.6-6.8-.8-9l.6.2c3.3,7.7,22.8,48.4,15.6,53.3-8.7-.8-18.4-15.2-21.1-22.8-2.3-6.7-3.2-9.6-5.9-16.6-3.4-9-16.5-22.2-23.2-8.2-1.3,2.8,1.1,10.5,3,13.7,5.3,9.1,12.2,15.4,17.3,24.9-22-13.6-38.4-27.8-54.7-48.1-4.4-5.5-8.6-11.1-12.6-17-9.2-13.5-18.5-30-32.1-39.4-3.1-2.2-9.1-2.5-9.5,1.9-1.6,17.9,19.6,31.1,29.9,43,5.3,6.1,7.7,10.6,11.1,17.4-13.1-12.6-32.8-23.7-50.4-28.1-5.8-1.5-23.3-4.8-25.1,3.6.5,3.2,2.5,4.6,4.9,6.8-7.5-1.5-18.5-3.5-26-2.3l1.3.7v1.7c2.9,1.9,15.7,5.9,20,8-29.4-4.1-57.2,4.2-75.3,29.6-1.6,2.3-3.1,5.5-5,7.5-.5,2.3-4.4,7.7-5.8,10.4.6,0,2.3.3,2.8,0,6.5-3.5,11-6.9,18-9.7-9.1,9.5-16.8,20-16.3,33.6.4,12.7,7.3,19.2,19.6,18.7,9.7-.4,17-13.4,21.4-14,1.1-3.1,2.2-6.5,3.6-9.5,0,3.1.8,18,7.3,16,6.1-1.9,9.2-14.6,14.9-18.4,18.6-15.3,44.8-13.5,65.1-2.8,3.9,2.1,9.4,6.1,13.5,6.3l.8-.6c0-6.3-10.6-13.1-6.9-19.9.8-1.5,4.5-2,6-1.8,42.7,5.3,71.3,50.5,67.9,91.6-1.3,16.1-5.5,33.9-14.1,46.8,1.2-.4,1.4-.6,2.4-1.5,17.3-17,22.2-38.8,23.3-61.7-.1-7.4-.7-13.6-1.9-21-.9-5.8-5.2-16.6-2.4-21.7,3.5-6.6,13.9-1.1,18.1,2.2,9,7.1,14.3,19.1,15.7,30.2,1,6.3,1.2,9.9,1,16.2.2,8.2-.1,12.7-1.5,20.9,11-24.8,9.6-44.2.2-68.7,2.9,3.1,8.8,10.1,12.7,10.4,1.2-1,1-.8,1.3-2.9,1.3-9.8-8.4-21-1-29.7,1.1-1.3,4.6-2.1,6.1-1.7,15.3,4,17,27.7,14.7,40.3-1.3,7.2-3.2,12.7-4.4,19.1-2.7,13.2.2,26.9,8,37.9,4.8,6.8,11.3,12.3,18.3,16.9-10.3-13.2-19-28.5-17.3-45.7,1.4-15,17.3-16.1,24.7-4.4,7,10.9,2,22.3,7.5,33.4,2.2,4.4,5.2,7.6,8.5,11.3-2.5-10.5-3.6-14.6-1.1-25.3,9.5,9.2,14.3,20.5,20.8,31.8,15.7,27.4,45,37.8,75.2,38,18.6.2,30.1-8.2,47.5-10.8,10.6-1.6,21.5,6.7,32.4,3.7,19.3-4.2,32.4-24.2,53.5-21.8,2.6.3,8.9,2.1,9.4,5.2-1.9,1.1-4.6.8-6.9,1.4-10,2.5-16.8,8.2-21.4,17.2,10.1-3.9,24.7-8.7,34.4-3,16.9,10,28.1,15.2,49.2,12.2-19.1,9.4-37.1,13.8-58.3,10.3,4.9,2.6,9.1,3.9,14.3,5.8-18.7,3.2-35.4,4.4-54.1-.4-17.7-4.5-28.2-8.4-47.2-8.6-24.5-.2-42.8,12.2-66.6,10.3-12.7-1-23.8-5.8-35.8-9.4-7.9-2.3-16-3.8-24.2-4.3,22,13.5,35.6,21.8,61.1,27.2-11.4,4-23.1,7.3-35.3,5.8-5.7-.7-10.3-2.2-16.1-1.3-4.8.7-9,3.2-13,5.7-14.4,9.2-24.9,9-41.4,7.1,17.6-7,29.2-20.4,46.7-21.5-8.6-3.6-15.3-4.9-24.3-.9-13.7,6.1-19.3,14.3-35.3,16.1-21.1,2.3-34.6-10.3-54.4-12.6-14.1-1.6-29.9,1.4-44.3,1.7-13.4.2-26.7-1.1-39.8-3.9-5.2-1.1-10.3-2.6-15.3-3.7,19.3,14.4,43.6,20.6,67.5,17.1,29-3.9,30.5-4.1,57.4,10-11.6-.1-22.8-.4-34.4-.4,15,6.1,32,9.3,48,11.2,47.6,5.6,93.5,1.3,138-16.9,18.5-7.6,36.9-20,55.5-24.5,16.7-4.1,35.5,3.6,51.9,6.9,10.1,2,20.4,2.7,30.7,2.1,44.4-2.7,79-29.7,120.9-40.5,3.6-.9,7.2-1.2,10.8-2.2-2.3-1.1-4.6-.6-6.9-.9-17.2-2.6-68.4,16-78.3-4.2-1.1-2.3-1.2-5-.3-7.4,3.3-8.4,15.6-11.7,23.8-11.2,6.3.4,13.6,4.1,19.7,1.3,1.8-.8,3-2,3.6-3.9.6-1.6,0-3.5-.8-4.9-1.8-3.2-5.5-4.9-8.9-5.9-25.5-8.2-49.4,17-64.4,12.7-1.8-.5-3.1-1.4-4-3.2,0-4.3,16.6-14.3,12.4-19.5-11.5-14.3-42.5,14.7-48,18.8-4.3,3.2-8.9,6-13.8,8.2-8,3.7-22.8,7.6-29.4,0-3-3.5-5.5-9.4-10.5-10.8-12.6-3.7-20.4,7.2-30.2,12.2-9.4,4.9-17.7,1.7-24.7-5.4-11.9-12,2-32.7-15.5-39.8-3.3-1.3-8-.2-11,1.5-11.3,6.1-1.8,19.8-3.8,27.2-4.3,5.1-15.7-3.4-19.3-6.4-21.7-18.1-29.8-44-31-71.4-.5-10.9-3.1-26.2-11.5-33.9-2.3-2-6.6-3.7-9.8-3.1-13.5,2.6-12.6,18.8-11.5,29.2-7.4-16.4-4.9-24.4-15.9-41.1-2.9-4.5-6.2-8.6-9.9-12.4-9.2-9.2-19.7-15-21.7-28.7-1.7-11.3,1.7-28.8-10.6-34.9-6.1-3-15.9,2.8-17,9.4-4.2,17.7,6.3,35,14.3,49.9-5.6-3.9-11.3-10.2-14.7-16.4-7.4-13.6-10.5-39.6,5.3-48.9,4.3-2.3,10.6-2.3,15-.4,20,8.7,10.7,31.6,17.3,46.9,2.8,6.5,11.5,12.5,16.5,17.6,8.9,9,14.4,18.4,19.4,30,.7-1,1.7-2.3,2.6-3.1,3.7-3.4,7.2-5.1,12.1-5,31.5.6,25.8,59.1,30.8,64.5,1.7,0,2.8-1.1,4.3-2.2,4.4-12.5,11.5-25.9,28.2-23.3,7.1,1,14.2,10.8,11.5,17.7-6.8,17.2-19.3,10.8-24.4,31.1,4.9,3.3,5.5,6.6,12.4,10.1,3.1-5.6,6.5-9.7,12.9-11.6,5.1-1.5,10.6-.8,15.2,1.9,9.3,5.4,11.1,14,11.6,23.8,3.6.5,8.1,2.8,12.2,3.7,5.9,1.3,19.5,1.7,24.2,3.7l2.5-.4,2-.6c9.5-4,14-6.5,22.8-11.8-21.2,5.9-39.7,3.6-59.4-5.2ZM268.3,697.2c6.3,0,12.1.2,17.8,3.2,2.7,1.4,13.3,8.7,14.1,11l-1.5-.4c-7.1-4.8-16.8-8.6-25-11.2-2.8-.9-6.1-.8-8.7-2.1l3.3-.5ZM290.8,754.5c-5.6-2.4-16.9-6.4-21.7-8.8-5-1.4-7.8-2.3-12.9-3.2-16.6-1.1-28.7-.9-43.5,8.3-3.8,2.3-10,7-13.5,8.8.1-4.7,1-11.2,3.6-15.2,3.6-6.7,12.8-12.5,19.8-15,12.1-4.5,25.5-4,37.3,1.3,8.9,3.6,12.4,8.3,21.9,11.5-.6-3.3-1.4-8.4,1-10.8,11.1-11,30.5,3,37.1,10.6-12.4-4.3-37.8-10.5-29,12.4ZM489.2,735.8l-2.2-3.9c-2.2-3.4-4.3-6.6-7.3-9.4-6.2-5.8-14-9.3-16.7-18.1-1.3-4.1-1-9.5,1.1-13.3,2.2-4,6.1-6,10.3-7.2,2.4-.1,4.6,0,6.9.8,4.9,1.7,8.4,4.9,10.6,9.5,6.1,12.7,1.5,28.9-2.7,41.4Z"/>
  <path class="st8" d="M363.7,951.5c14.4-.3,30.3-3.3,44.3-1.7,19.7,2.3,33.3,14.9,54.4,12.6,16-1.8,21.6-9.9,35.3-16.1,9.1-4,15.7-2.7,24.3.9-17.4,1.1-29.1,14.5-46.7,21.5,16.6,2,27,2.1,41.4-7.1,4-2.6,8.2-5,13-5.7,5.8-.9,10.4.6,16.1,1.3,12.2,1.5,23.9-1.8,35.3-5.8-25.5-5.4-39.1-13.7-61.1-27.2,8.2.5,16.3,2,24.2,4.3,12.1,3.5,23.1,8.4,35.8,9.4,23.8,1.9,42.1-10.5,66.6-10.3,18.9.2,29.4,4.1,47.2,8.6,18.7,4.7,35.4,3.6,54.1.4-5.2-1.9-9.4-3.2-14.3-5.8,21.3,3.5,39.2-.9,58.3-10.3-21.1,3-32.3-2.2-49.2-12.2-9.7-5.8-24.3-.9-34.4,3,4.6-9,11.4-14.6,21.4-17.2,2.3-.6,5-.3,6.9-1.4-.5-3-6.8-4.9-9.4-5.2-21.1-2.4-34.2,17.6-53.5,21.8-10.9,3-21.8-5.2-32.4-3.7-17.4,2.6-28.9,11-47.5,10.8-30.2-.3-59.5-10.6-75.2-38-6.5-11.3-11.3-22.6-20.8-31.8-2.5,10.7-1.4,14.8,1.1,25.3-3.2-3.7-6.2-6.9-8.5-11.3-5.5-11.1-.5-22.5-7.5-33.4-7.5-11.7-23.3-10.6-24.7,4.4-1.6,17.2,7.1,32.5,17.3,45.7-6.9-4.5-13.5-10.1-18.3-16.9-7.8-11-10.7-24.7-8-37.9,1.3-6.4,3.1-11.9,4.4-19.1,2.2-12.6.6-36.2-14.7-40.3-1.5-.4-5,.4-6.1,1.7-7.4,8.7,2.3,20,1,29.7-.3,2.1-.1,1.9-1.3,2.9-3.9-.3-9.8-7.3-12.7-10.4,9.4,24.5,10.8,44-.2,68.7,1.4-8.2,1.7-12.6,1.5-20.9-1.4-2.1-2.7-10-3.5-13.4-3.5-10.3-7.6-19.9-17.8-25.8-1.6-1-2.7-.7-4.3-.3-5.2,4.8-.2,24.6-3.8,32.7l-1,.8c-1.2,22.9-6,44.7-23.3,61.7-1,1-1.2,1.1-2.4,1.5l-1.4,1.6c-1.5,2.3-7,6.9-9.3,9,2-3.6,3.8-7,5.6-10.7,6.3-13.7,9.8-24.9,11-40,3.1-37.7-18.4-77.1-56.7-87.1,4.1,7.3,11.3,21.9-4.5,17.9,10.8,9.7,17.2,20.2,21.7,34,11.8,36.4-4.6,85-43.1,97.4,22-12.4,36-32.2,39.8-57.3,3.1-20.9-1.5-43.6-14.3-60.6-9.6-12.8-23.9-21.2-39.7-23.5-14.2-2-24,.1-35.2,8.6,6.9,1.3,9.5,2.5,15.2,6.4,5.5.4,14.3,8.2,18,12.2,10.4,11.4,15,25.4,14.4,40.8-.8,20.1-15.4,44.3-38.9,36-6.1-2.2-18.6-17.1-24.4-16.9-1.1,2.1.1,6,0,8.5-1.4,27.4-31.2,22.3-48.6,24.4,5.3,1.4,10.8,2.3,16.1,3.8,26.2,7.3,55.7,13.4,80.8-1.2,15.2-9,26.1-23.6,30.5-40.7,3.6-13.5,3.2-30.3-1.6-43.5,10.9,15.3,15.5,31,12.4,49.8-2.6,16.8-11.8,31.9-25.6,41.9-13.1,9.4-29.4,13.1-45.3,12.8,23.1,12.4,45.6,13.5,70.8,6.1,3.5-1.1,7-2.3,10.5-3.7-2.8,2.8-9,5.9-12.7,8.6,6.2-.5,14.2-4.6,19-8.6-6,10-14.8,17.3-24.9,23l3.6,2.4c5,1,10.1,2.6,15.3,3.7,13.1,2.7,26.4,4,39.8,3.9ZM372.4,913.9l-.3-.6c1.7-2.5,15.4-6.6,19.1-7.3,3.2-.6,6.5-.9,9.8-.9,4.1,0,13.2,1.4,16.2-.1,2.1-4.6-7.4-20,7.6-25.2,8.1-2.8,15.5-1.8,23.2,1.8,11.1,5,19.7,14.3,23.8,25.8.8,2.2,1.2,3.6,1.2,6l-.8,1.7,1.9,5.3c1,3,2.2,6.2,3.1,9.3-2-2.4-3.8-4.7-5.9-7-7.2-8-19.9-21.8-31.8-20.1-8.8,1.3,1.5,15.9-2.2,23.2-5.7,11.2-17,1.8-24.1-1-24.3-9.8-46.6-1.6-68.8,7.6,9.5-7.9,16.5-13.7,28-18.5ZM346.5,821.4c3.3,2.7,5.9,9.5,7.1,13.5,5.3,17.8,1.2,35.1-7.4,51-1,1.6-2.1,3-3.1,4.5,7.8-22.4,9.3-45.9,3.5-69Z"/>
  <path class="st4" d="M313.2,922.3c-25.2,7.4-47.7,6.3-70.8-6.1,15.9.3,32.2-3.4,45.3-12.8,13.8-10,23-25.1,25.6-41.9,3-18.8-1.5-34.6-12.4-49.8,4.8,13.2,5.2,30,1.6,43.5-4.3,17.1-15.3,31.7-30.5,40.7-25.1,14.6-54.6,8.5-80.8,1.2-5.3-1.5-10.8-2.4-16.1-3.8,17.3-2.1,47.1,2.9,48.6-24.4.1-2.5-1.1-6.4,0-8.5,5.8-.2,18.3,14.7,24.4,16.9,23.5,8.3,38.1-15.9,38.9-36,.6-15.4-4-29.5-14.4-40.8-3.7-4-12.5-11.9-18-12.2,20.7,16.2,31.9,49,15.9,72.7-5.8,8.6-16.4,9.5-24.4,2.6-11.6-11.2-22.3-23.3-40-22.3-2.8.2-5.1.7-7.1,2.9.1,3.2,15.3,9.3,15.2,20.2-.1,14.1-10.5,20.4-23.6,21.2-17.5,0-30.8,1.1-46.6,9,19.1,2.5,34,6.6,52.3,13.5,21.6,8.2,42.1,20.8,64.4,26.6,6.7,1.7,15,1.3,21.8,1,7.2-.6,14-2.7,20.7-5.1,2.1-.7,6.3-2.7,7.9-3.1,3.7-2.7,9.9-5.8,12.7-8.6-3.4,1.4-6.9,2.6-10.5,3.7Z"/>
  <path class="st10" d="M364,893.9c-1.6-1-2-1.1-3.7-1.7-1.9,3.7-3.6,7.1-5.6,10.7,2.3-2.1,7.8-6.6,9.3-9Z"/>
  <path class="st4" d="M413.2,924.8c7.1,2.9,18.4,12.2,24.1,1,3.7-7.2-6.7-21.9,2.2-23.2,12-1.7,24.6,12.1,31.8,20.1.9-.9,1.8-1.5,2.8-2.3l-1.9-5.3c-5.7-13-14.3-24.2-27.5-30.1-8.5-3-20.6-5.9-24.9,4.7-2.4,5.9,8.6,20.5,1.9,21.5-6.8,1.1-16.6-2.4-24.2-2.2-9.5.4-16.2,1.9-25.1,4.8-11.5,4.9-18.5,10.6-28,18.5,22.2-9.2,44.5-17.4,68.8-7.6Z"/>
  <path class="st7" d="M421.7,911.2c6.7-1-4.3-15.6-1.9-21.5,4.3-10.6,16.4-7.7,24.9-4.7,13.2,5.9,21.9,17.1,27.5,30.1l.8-1.7c0-2.4-.5-3.8-1.2-6-4.1-11.5-12.7-20.8-23.8-25.8-7.6-3.5-15.1-4.6-23.2-1.8-15,5.2-5.6,20.6-7.6,25.2-3,1.5-12.1.1-16.2.1-3.3,0-6.5.3-9.8.9-3.7.7-17.3,4.8-19.1,7.3l.3.6c8.9-2.9,15.7-4.5,25.1-4.8,7.6-.3,17.4,3.2,24.2,2.2Z"/>
  <path class="st4" d="M346.1,885.9c8.6-15.9,12.7-33.2,7.4-51-1.2-4-3.8-10.8-7.1-13.5,5.8,23.1,4.3,46.6-3.5,69,1.1-1.5,2.2-2.9,3.1-4.5Z"/>
  <path class="st5" d="M477.3,929.8c-1-3.1-2.1-6.3-3.1-9.3-1,.8-1.8,1.4-2.8,2.3,2.1,2.3,3.9,4.6,5.9,7Z"/>
  <path class="st8" d="M558.9,646.6c1.9.2,2.5,0,3.9,1-14.6,38.4-18.6,73.6,7,109.2-13.6-11.4-19.1-18.1-28.2-33.2,14.2,49.7,57.1,69.5,104.5,76.4-19.7,1.8-31.7.4-50.8-4.9,19.9,14.2,56.3,16.8,79.8,12.4,18.4-3.5,28.5-7,45.1-15.7-13.1,10.8-22.2,17.7-38.2,24.8-5.2,2.3-13.3,4.7-17.4,6.7,13.4-.8,24.2-2.1,36.7-7.8-21.5,23.1-46,35.5-78.1,36.6-7.6.3-15.2-.3-22.6-1.8,19.7,8.8,38.2,11.1,59.4,5.2-8.8,5.3-13.4,7.8-22.8,11.8,11.1.2,17.2-1.5,25.1,8.9,18.6-10.9,32.5-24.5,45.9-41.3,11.9-14.9,24.9-33.4,44.4-38.2,5.5-1.4,11-1.1,16.6-.9-9.6,3.1-13.1,4.8-21.9,9.8v.4s7.7.3,7.7.3c-.7-.3-1.5-.5-2.2-.8,1.2-.5,4.3-.4,5.9-.5,23.7-.5,45,11.4,68,15.4,28,4.9,62.8,1.9,80.4-23.6-16.3-2.3-29.9-7.4-42.7-18.1-27.7-23.2-42.7-36.5-80.6-36,34.9-34.9,15.3-80.2,42-119,4.5-6.5,8.3-10.1,14.1-15.3-21.6-7.3-49.3,7.8-65.3,21.6-35.7,30.7-51.3,76.3-54.7,122.1,8.2-2.7,21.1-9.3,29.7-12.8-2.2,2.1-14.2,12.3-15,13.6-.6,2.1-9.4,8.7-11.6,10.4-16,11.9-37.6,18-57.2,12.9-4.2-1.1-12.2-3.6-14.8-6.6-54.6-32-25.6-96.1-4.7-139.6,5.9-12.2,11.7-24.4,17.4-36.6-22.8,18.2-36.3,23.8-64.3,31.7-12.5,17.6-19.3,21.3-40.8,21.7ZM577.2,710.5c-1.1-.3-2-.6-2.8-1.4-2.4-2.5-2.6-6.6-2.5-9.9.4-6.6,2.3-13.4,7.3-17.9,1.3,0,2.3.2,3.3,1.1,2.2,2,2.3,6.1,2.1,8.8-.4,6.7-2.2,14.8-7.4,19.3ZM585.4,740.9c-.4,0-.6,0-1-.2-1.7-.7-2.7-2.1-3.4-3.8-1.3-3.4-.8-7.1.6-10.3.3,0,.5.1.8.2,1.4.5,2.5,1.8,3.2,3.1,1.7,3.4,1.1,7.6-.2,11ZM590.6,719.8c-.4,0-.6-.1-1-.4-1.4-.8-2.2-2.4-2.4-4-.5-3.5,1.2-6.6,3.1-9.3.2,0,.4,0,.5.2,1.3.6,2,1.6,2.4,2.9.9,3.6-.7,7.6-2.6,10.6ZM605.6,675.5c-1.1,5.7-4.4,12.5-9.3,15.8-1-.2-1.6-.5-2.2-1.3-1.4-1.7-1.3-3.9-1-6,1.1-6.2,4.6-12.7,9.8-16.3.6.2,1.2.7,1.8,1,1.4,2.2,1.4,4.3.9,6.8ZM613.7,647.9c.5-6,4.4-11.8,8.9-15.6,1.2.1,1.4.1,2.4.9.3.7.5,1.3.5,2.1-.3,6-4.9,11.7-9.2,15.5-1.3,0-1.3.1-2.3-.7-.3-.7-.4-1.4-.3-2.1ZM605.6,632.7c1.2.3,2,1.2,2.5,2.2,1.4,2.7-.3,7.4-1.3,10.1-3.1,8.3-9.6,18.5-17.8,22.3-.7,0-1.3,0-2-.2-1.2-.4-2.2-1.4-2.7-2.6-1.1-2.9.2-6.8,1.1-9.5,3.2-9.3,9.5-18.2,18.4-22.6.6,0,1.2.1,1.7.3Z"/>
  <path class="st4" d="M774.8,629.8c16-13.8,43.7-28.8,65.3-21.6-5.8,5.2-9.6,8.8-14.1,15.3-26.7,38.8-7.1,84.1-42,119,37.9-.5,52.8,12.8,80.6,36,12.8,10.7,26.4,15.8,42.7,18.1-17.6,25.5-52.3,28.5-80.4,23.6-23-4-44.4-15.8-68-15.4-1.6,0-4.7,0-5.9.5.7.3,1.5.5,2.2.8,5.3-.5,18.1,4.3,23.1,6.5,31.6,14,64.5,24.1,98.5,11.8,16-5.8,29-15,36.4-30.8-40.1.5-56.7-42.2-91.9-52.6-8.5-2.5-13.8-2.8-22.6-2.9,31.5-38.7,2.4-95.8,49-131.5-21.9-18.2-64.4,6.5-81.3,22.2-34.5,31.9-52.2,80.1-54.2,126.3l7.8-3.1c3.5-45.8,19-91.4,54.7-122.1Z"/>
  <path class="st8" d="M665.9,776c19.6,5.2,41.2-1,57.2-12.9,2.2-1.7,11.1-8.3,11.6-10.4-22.6,14.3-57.5,27.8-83.6,16.6,2.6,3,10.5,5.5,14.8,6.6Z"/>
  <path class="st3" d="M665.9,776c19.6,5.2,41.2-1,57.2-12.9,2.2-1.7,11.1-8.3,11.6-10.4-22.6,14.3-57.5,27.8-83.6,16.6,2.6,3,10.5,5.5,14.8,6.6Z"/>
  <path class="st7" d="M585.4,655c-1,2.8-2.3,6.7-1.1,9.5.5,1.2,1.5,2.1,2.7,2.6.7.2,1.3.2,2,.2,8.2-3.8,14.7-14,17.8-22.3,1-2.7,2.7-7.4,1.3-10.1-.5-1.1-1.3-1.9-2.5-2.2-.6-.2-1.1-.2-1.7-.3-8.9,4.4-15.3,13.3-18.4,22.6Z"/>
  <path class="st7" d="M582.5,682.5c-1-.9-1.9-1.1-3.3-1.1-5,4.5-6.9,11.4-7.3,17.9-.2,3.3,0,7.3,2.5,9.9.8.9,1.7,1.1,2.8,1.4,5.2-4.5,7-12.6,7.4-19.3.2-2.7,0-6.8-2.1-8.8Z"/>
  <path class="st7" d="M602.9,667.7c-5.2,3.6-8.7,10.1-9.8,16.3-.3,2.1-.4,4.3,1,6,.6.8,1.2,1,2.2,1.3,4.9-3.3,8.2-10.1,9.3-15.8.5-2.5.5-4.6-.9-6.8-.6-.3-1.2-.8-1.8-1Z"/>
  <path class="st7" d="M616.3,650.7c4.2-3.8,8.9-9.5,9.2-15.5,0-.8-.2-1.4-.5-2.1-1-.8-1.1-.8-2.4-.9-4.4,3.8-8.4,9.6-8.9,15.6,0,.8,0,1.4.3,2.1,1,.8,1,.7,2.3.7Z"/>
  <path class="st7" d="M582.4,726.7c-.2,0-.5-.1-.8-.2-1.5,3.2-1.9,6.9-.6,10.3.6,1.6,1.7,3.1,3.4,3.8.4.2.6.2,1,.2,1.3-3.4,1.9-7.6.2-11-.6-1.3-1.8-2.6-3.2-3.1Z"/>
  <path class="st7" d="M590.8,706.3c-.2,0-.3-.1-.5-.2-2,2.7-3.6,5.8-3.1,9.3.2,1.6,1,3.2,2.4,4,.4.2.6.3,1,.4,1.9-3,3.5-7,2.6-10.6-.3-1.3-1.1-2.3-2.4-2.9Z"/>
  <path class="st8" d="M376.4,651.4c-5-12-10.4-23.9-16.1-35.7-4.7,5-7.6,8.1-13.6,11.4,12.9,27.5,28.1,51.3,36.1,81.4,26.4,14,14.3,40.2,34.4,52.4-.8-11.8-4.7-18-8.9-28.8-.6-1.4-2.3-6.7-2.7-7.4-3.3-1.7-25.6-64.7-29.2-73.5Z"/>
  <path class="st5" d="M247.9,708.6c-4.4-2-17.2-6-19.9-8v-1.7c-.1,0-1.4-.7-1.4-.7-22.9,1.3-44.4,11.6-59.8,28.6-9.6,10.8-14.4,21.6-15.4,35.8,4.6-6.1,9.7-12.9,16.3-17,1.9-2,3.3-5.2,5-7.5,18.1-25.4,45.8-33.7,75.3-29.6Z"/>
  <path class="st5" d="M166.3,780c-.4-13.6,7.2-24.1,16.3-33.6-7,2.9-11.4,6.2-18,9.7-.5.3-2.2,0-2.8,0-3.6,7-6.4,13.6-7,21.5-.8,11.5,4,23,14.8,28.3,6.2,3,13.3,3.4,19.8,1,10.5-3.9,14.9-12.4,17.8-22.3-4.4.6-11.6,13.6-21.4,14-12.3.5-19.2-6-19.6-18.7Z"/>
  <path class="st7" d="M395.8,795.6c1.6-.5,2.6-.7,4.3.3,10.2,5.9,14.3,15.6,17.8,25.8l2.5-2.9c-1.4-11.2-6.7-23.1-15.7-30.2-4.2-3.3-14.6-8.8-18.1-2.2-2.7,5.1,1.5,16,2.4,21.7,1.2,7.4,1.8,13.5,1.9,21l1-.8c3.6-8.1-1.4-27.9,3.8-32.7Z"/>
  <path class="st8" d="M597.4,870.9c6,17.5,22.1,10,31.2,1.2,1.3-1.3,5-3.1,6.8-4.4l-2.5.4c-9.6,3.5-25.3,3.9-35.4,2.8Z"/>
  <path class="st9" d="M632.8,868.2c-4.6-2-18.3-2.4-24.2-3.7-4.1-.9-8.6-3.2-12.2-3.7,0,3.5,0,6.7,1,10.1,10.1,1.1,25.8.8,35.4-2.8Z"/>
  <path class="st9" d="M544.3,836.6c-1,11.5,1.3,18.5,11.2,25.1-.4-5.8-.6-9.4,1.2-15-6.9-3.4-7.5-6.7-12.4-10.1Z"/>
  <path class="st7" d="M421.4,835.1c.2-6.3,0-10-1-16.2l-2.5,2.9c.8,3.3,2.1,11.3,3.5,13.4Z"/>
  <path class="st7" d="M481.3,684.8c-2.3-.8-4.5-.9-6.9-.8-4.2,1.2-8.1,3.2-10.3,7.2-2.1,3.8-2.4,9.1-1.1,13.3,2.7,8.8,10.5,12.2,16.7,18.1,3,2.8,5.2,5.9,7.3,9.4l2.2,3.9c4.2-12.6,8.8-28.7,2.7-41.4-2.2-4.6-5.7-7.9-10.6-9.5ZM486.6,721l-1.9-2.5c-4.2-5.7-11.3-8-14.6-14.6-1.1-2.1-1.7-4.6-.8-6.9,1.1-2.7,3.2-4.3,5.8-5.4,2.9,0,5.4.8,7.6,2.8,3.9,3.5,5.1,9.4,5.2,14.4,0,2.3.2,10.7-1.3,12.3Z"/>
  <path class="st4" d="M482.7,694.3c-2.2-2-4.7-2.7-7.6-2.8-2.6,1.2-4.7,2.7-5.8,5.4-.9,2.3-.2,4.8.8,6.9,3.3,6.6,10.4,9,14.6,14.6l1.9,2.5c1.5-1.6,1.3-10,1.3-12.3-.1-5-1.2-10.9-5.2-14.4Z"/>
  <path class="st8" d="M208.8,740.8c-1.3,1-4.8,4-6,3.7-2.6,4-3.5,10.5-3.6,15.2,3.6-1.8,9.8-6.5,13.5-8.8,14.8-9.1,26.9-9.4,43.5-8.3-10.7-10.9-36.2-10.5-47.4-1.8Z"/>
  <path class="st7" d="M222.6,729.5c-7,2.5-16.3,8.3-19.8,15,1.2.3,4.7-2.6,6-3.7,11.2-8.7,36.7-9.1,47.4,1.8,5.1.9,8,1.8,12.9,3.2-.3-1.4-7.9-12.7-9.2-15-11.8-5.3-25.1-5.8-37.3-1.3Z"/>
  <path class="st8" d="M282.8,731.5c-2.4,2.4-1.6,7.5-1,10.8-9.5-3.2-13-7.9-21.9-11.5,1.4,2.3,8.9,13.6,9.2,15,4.8,2.3,16.1,6.4,21.7,8.8-8.8-22.9,16.6-16.8,29-12.4-6.6-7.6-25.9-21.6-37.1-10.6Z"/>
  <path class="st5" d="M298.7,711l1.5.4c-.7-2.3-11.4-9.6-14.1-11-5.7-3-11.6-3.1-17.8-3.2l-3.3.5c2.6,1.3,5.9,1.3,8.7,2.1,8.2,2.6,17.9,6.4,25,11.2Z"/>
  <path class="st8" d="M363.5,411.2c3.2,6.6,5.2,10.1,9.8,15.8-1-2.6-1.9-5.3-2.7-8-9.8-33-3.2-74.2,13.3-104.2-5-14.1-5.1-25.1,2.9-38.4,14-23.5,47.9-32,71.6-18.7,2.7,1.5,7.4,5.2,8.1,8.3,0,0,0,0,0,.1,9.2,8.3,13.6,17,25.7,22.3,20.2,8.6,43.8,1.7,64.3-2.7,32.3-7,65.3-11.6,98.2-5.8,17.6,3.1,37.5,9.2,48.3,24.5,3.9-12.7,1.3-21.4-6.7-31.6.9-9.9,1.1-14.1-.7-23.7-4.5.6-9.2,6.8-13.4,9.7-13.1,9-27.8,12.4-43,6.8-9.1-3.3-16.5-10.2-20.5-19-4.1-9.1-4.3-19.4-.7-28.6,4.4-11.5,12.5-18.7,23.5-23.6-30.2,2.8-38.1,22.7-38,50.2-2.3-8.2-3.1-16.5-1.3-24.9,2.2-10.5,8.6-19.6,17.6-25.4,10.8-6.8,21.4-7.4,33.6-4.7,2.1-2,4.8-3.6,7.2-5.3-24.4-29.9-64.3-45-101.8-48.7-63-6-125.8,13-175,52.8-37.6,30.8-64.5,71.4-79.7,117.4-4.2,12.7-10.7,35.9-10.6,49.4,11.4-2.3,20.3-2.5,30.3,4.2,17.7,11.7,21.3,37.9,2.8,50.9.2,4.3-.1,8.6-1,12.7,3.8,9.1,4.3,17.6.7,26.9l8.9,4.1c3.3-7.7,4.2-11.1,5.9-19.3.3,8.4,1.1,16.1,1.6,24.3,5.4,4.5,10.7,9,16,13.7,2.6,2.3,7.5,6.9,10.1,8.7-4.8-27.1-6.6-42.4-5.3-70.2ZM404.3,236.8l-.8-.2c-2-3.4-3.2-6.6-2.9-10.6.3-5.9,3.7-9.8,7.8-13.6,0,2.6-3.6,9.8-4.3,13.3-.7,3.9,0,7.2.3,11ZM612.7,182.8c-3.3,0-6.7-.7-8.6-3.6-.3-2-.4-1.2.8-3.2,4,0,10,1.6,7.8,6.8ZM597.2,157c4.5.4,13.8,3.1,14.4,8.5-.9,1.9-.2,1.1-2.3,2.3-4.7-.1-13.9-2.7-14.5-8.2.8-2,.4-1.3,2.3-2.7ZM593.8,180.3c-.7,2.2-.1,1.2-2,2.8-4,.2-9.7-.6-11.1-5.1.4-2.3.2-1.5,2-3.5,3.9,0,10.3,1.4,11.1,5.8ZM566.7,154.1c3.6-.3,6.1-.3,9.5,1.1,4.6,1.9,11.8,5,6.1,10.3-5.7.3-23.6-3.7-15.6-11.4ZM541.2,145.6c.6,0,1.2,0,1.8,0,2.9,0,11.2,1.4,10.9,5.2-1.2,1.4-2.3,1.6-4,2.3-.4,0-.7,0-1.1,0-3.2,0-12-.8-11.8-5,1.2-1.6,2.2-1.7,4.3-2.4ZM541.5,163.6c8-.6,20.7.7,25.1,8.5.3,3.4-2.1,4.8-5.1,5.8-10.5,2.4-35.2-7.4-20-14.3ZM507.3,149.1c18.7-1.9,27.9,8.6,4,12.8-5.5.5-14.7.9-18-4.4-.7-6.2,9.3-7.6,14-8.5ZM438.2,194.1c6.3-8.8,13.5-13.1,24.1-14.9,13.1-1,21.3,1.9,29.3,12.5-10.7-5-18-6.5-29.7-5.5-11.6,2-17,5.5-26.4,12,.9-1.4,1.8-2.7,2.8-4.1ZM459.3,202.6c23.6-1.1,36.5,15.7,53.9,28.6,10.5,7.8,24.4,16.1,38.1,13.8,8.7-1.5,14.3-6.9,19.3-13.7-.9,4.2-1.9,8.2-3.5,12.1,5.3-3.2,9.3-6.5,13.7-10.8-1.4,2.5-2.8,5.2-4.5,7.5-6.2,8.5-15.4,13.5-25.7,15.2-7.8,1.2-15.2,0-22.6-2.3-6.3,7.8-13.1,13.1-23.3,14.2-11.3,1.2-32.2-5.5-40.9-12.7-4.9-4.1-7.8-10.5-8.4-16.9-.9-9.4,2.5-16.8,8.3-23.9-11.9-1.6-21.5.6-32.5,4.9,8.1-8.9,16.1-14.1,28.2-16.1ZM399.8,199.2l.9-.5c3.6-3.8,8.3-6,13.1-7.9-3.3,2.5-9,7-12.4,8.8-.8,2-.2,3-1.5,5.3-2.7,5-12.7,16-18.9,12.6-3.6-5.8,11.2-20.8,18.8-18.4ZM356,246.1c3.7-8.3,10.4-14.7,18.7-18.1.8,0,2-.2,2.8,0,1.4.3,1.7.9,2.5,1.9.3,1.6.2,2.7-.5,4.2-3.1,7.6-11.3,15-18.7,18.2-.9,0-1.9.2-2.8,0-1.3-.2-2-1-2.7-2-.2-1.7,0-2.8.7-4.4ZM334.9,293c-1.1,8.1-7.1,19-13.5,24-.3,0-.5,0-.8,0-.7,0-1.2-.3-1.7-.9-1.2-1.6-.9-4-.6-5.9,1.4-8.4,6.5-17.8,13.4-22.9.8.1,1.8.2,2.3.9,1.1,1.4,1,3.1.8,4.8ZM347.7,266.7c-.1,3.9-4.3,8.5-7.1,10.9l-.9-.2c-.8-1-.9-1.2-.8-2.6.2-4,4-8.3,6.9-10.7l1.1.2c.8.9.9,1.1.8,2.3ZM353.6,281.7c-1.1-.3-.6,0-1.5-.9-.3-1.3-.4-2.2,0-3.5,1.6-6.6,6.6-12.6,12.4-16l.9.4c.5.9.6,1.6.5,2.7-1.1,6.1-7.3,13.6-12.1,17.3Z"/>
  <path class="st4" d="M699.8,248.4c-1.7-.4-2.2.1-4.2.7,1.9,9.6,1.6,13.8.7,23.7,8.1,10.2,10.6,18.8,6.7,31.6-10.8-15.4-30.8-21.4-48.3-24.5-32.9-5.8-66-1.2-98.2,5.8-20.5,4.5-44.1,11.3-64.3,2.7-12.1-5.2-16.5-14-25.7-22.3,0,0,0,0,0-.1-41.8-26.6-94.4,7.8-75.5,58.5-2.6-3.4-4.8-6.1-7-9.7-16.4,30-23.1,71.2-13.3,104.2.8,2.7,1.7,5.3,2.7,8-4.5-5.6-6.6-9.2-9.8-15.8-1.3,27.8.5,43.1,5.3,70.2,2.3,3.4,7.9,7.1,11,9.9,23.7,21,52.9,7.4,79.3,1.1,15.2-3.6,33.1-5.8,48.7-3.9,10.3-20.1,26.1-34.2,47.1-42.6,2.6-6.7,5.1-11,9.1-16.9-14.5,8-27.9,12.3-43.6,16.8-14.1,3.2-34.3,6-48.3,4,19.8-2.7,27.5-4.3,47.1-9.7,21.1-7.4,32.5-11.7,51.5-24.2-24.8,6.7-60.6,7.6-85.2.1,63.9.7,122.7-16.4,170.5-60.1-26.2,1.4-42.1,6.3-65.8,16.8,20.9-16.3,41.2-22.4,67.1-26.6,23.7-3.8,27.2-22,2-28.6-45.3-11.9-93.5.3-138.3,9.1-15.5,3-30.7,7.5-46.5,8.4-32.4,2.3-38.3-22.3-44.6-48-9.2,3.3-13.4,7.7-19.8,14.9,1.2-4.8,2.1-7.8,4.7-12.1,4.4-7.2,11.5-12.4,19.7-14.4,10.1-2.5,17.3-.1,25.8,5.1-5.8-.3-10.3.2-16,.9,3.3,5.8,7.6,10.9,12.6,15.2,38.5,33.1,101,10.7,146,8.3,22.4-1.2,60.2-2.2,79.1,12.8,4.3,3.4,5.3,8.1,5.6,13.2,22.3-12.6,29.3-36.2,12.6-56.9,1.3-5.6,3-20.9-.4-25.5ZM607.1,340.7c5.5-.3,11.1.2,16.6.7-15.4,2.2-30.4,5.1-45.6,8.7-4.6,1-9.2,2.4-13.7,3.7,13.6-7.7,27.2-12,42.7-13.1ZM447,347.4c7.4,5.1,16.1,7.9,24.4,10.9-5.4.4-11.8-.8-16.9-2.7-8.2-3.1-14.6-8.8-18.3-16.8,3.8,2.5,7,6,10.7,8.6ZM431.4,413.4c16.8,10.4,34.5,15.8,53.6,19.9-5,.5-10.2.2-15.2-.4-20.5-2.6-38.9-12.6-51.6-29,4.6,2.7,8.6,6.6,13.3,9.5Z"/>
  <path class="st7" d="M458.3,257.7c-23.7-13.3-57.6-4.8-71.6,18.7-8,13.3-7.8,24.3-2.9,38.4,2.3,3.6,4.4,6.3,7,9.7-18.8-50.7,33.8-85.1,75.5-58.5-.7-3.1-5.3-6.7-8.1-8.3Z"/>
  <path class="st7" d="M520.3,445.8c-.2-2.4,0-4.2-1.2-5.7-19.6,5.4-27.2,7-47.1,9.7,14.1,2.1,34.2-.8,48.3-4Z"/>
  <path class="st7" d="M469.8,432.9c5,.6,10.2.9,15.2.4-19.1-4.1-36.8-9.5-53.6-19.9-4.6-2.8-8.6-6.7-13.3-9.5,12.7,16.3,31.1,26.4,51.6,29Z"/>
  <path class="st7" d="M623.7,341.4c-5.5-.5-11-1-16.6-.7-15.6,1.1-29.2,5.3-42.7,13.1,4.6-1.3,9.1-2.7,13.7-3.7,15.2-3.6,30.2-6.5,45.6-8.7Z"/>
  <path class="st7" d="M454.5,355.6c5.1,1.9,11.4,3.1,16.9,2.7-8.3-3.1-17.1-5.8-24.4-10.9-3.8-2.6-7-6.1-10.7-8.6,3.6,8,10.1,13.7,18.3,16.8Z"/>
  <path class="st4" d="M383.8,188.5c49.2-39.8,112-58.8,175-52.8,37.5,3.8,77.4,18.9,101.8,48.7,1.7-.9,3.8-2.2,5.5-3-25.4-32.1-65.5-48.5-105.4-52.8-62.2-6.7-128.7,12.7-177.5,51.6-15.8,12.5-29.9,27-42.2,42.9-26,33.9-48.7,83.7-53.6,126.4-.2,2-.7,4.4,0,6.3,2.1,1.4,3.8.3,6.1-.5-.1-13.4,6.4-36.7,10.6-49.4,15.2-46,42.2-86.6,79.7-117.4Z"/>
  <path class="st7" d="M463.6,213.9c-5.8,7.1-9.2,14.5-8.3,23.9.6,6.3,3.5,12.8,8.4,16.9,8.7,7.2,29.6,13.9,40.9,12.7,10.2-1.1,17-6.4,23.3-14.2,7.5,2.3,14.8,3.5,22.6,2.3,10.3-1.6,19.5-6.6,25.7-15.2,1.7-2.4,3.1-5,4.5-7.5-4.4,4.3-8.5,7.6-13.7,10.8,1.6-4,2.6-8,3.5-12.1-4.9,6.8-10.6,12.2-19.3,13.7-13.7,2.3-27.6-6-38.1-13.8-17.4-12.9-30.2-29.7-53.9-28.6-12.1,2-20,7.2-28.2,16.1,11.1-4.3,20.6-6.4,32.5-4.9ZM490.5,236.1c.4-2.2,1.8-3.1,3.5-4.2,1.2.5,2.4.9,3.4,1.7,1.2.9,2.2,2.2,2.1,3.8,0,2.1-1.7,3.3-3.2,4.4-2-.2-3.5-.5-4.9-2.2-.8-1.1-1.2-2.2-.9-3.6ZM471.5,216.6c3.5,1.6,5.7,2.7,9.1,4.6,3.6,1.8,6.2,3.9,9.4,6.4-3.6,4.4-5.9,8.6-5.4,14.6.4,4.4,2.5,8.4,5.9,11.2,3.3,2.7,7.6,3.9,11.9,3.3,6.3-.9,10.1-4.9,13-10.2l6.2,3.5c-16,24-31.9,8.2-51.9,3.1-8-9.7-9.6-20.2-2.7-31.2,1.4-1.9,3-3.6,4.5-5.3Z"/>
  <path class="st5" d="M469.7,253.1c20,5.1,35.9,20.9,51.9-3.1l-6.2-3.5c-2.9,5.3-6.7,9.3-13,10.2-4.2.6-8.5-.6-11.9-3.3-3.4-2.8-5.5-6.8-5.9-11.2-.6-6,1.8-10.2,5.4-14.6-3.2-2.5-5.8-4.6-9.4-6.4-2.7,1.7-10.2.9-13.6.7-6.9,11-5.3,21.5,2.7,31.2Z"/>
  <path class="st9" d="M480.6,221.2c-3.3-1.9-5.5-3-9.1-4.6-1.6,1.8-3.1,3.5-4.5,5.3,3.4.1,10.9.9,13.6-.7Z"/>
  <path class="st5" d="M496.3,241.8c1.5-1.1,3.1-2.3,3.2-4.4,0-1.6-.9-2.9-2.1-3.8-1-.8-2.2-1.2-3.4-1.7-1.7,1.1-3.1,2-3.5,4.2-.2,1.3,0,2.5.9,3.6,1.3,1.7,2.9,1.9,4.9,2.2Z"/>
  <path class="st7" d="M511.3,162c23.8-4.3,14.6-14.7-4-12.8-4.7.8-14.7,2.2-14,8.5,3.3,5.3,12.5,4.9,18,4.4Z"/>
  <path class="st7" d="M561.4,178c3-1,5.4-2.4,5.1-5.8-4.4-7.8-17-9.2-25.1-8.5-15.2,6.9,9.5,16.7,20,14.3Z"/>
  <path class="st7" d="M358,252.5c.9.1,1.9,0,2.8,0,7.4-3.2,15.7-10.6,18.7-18.2.6-1.5.8-2.6.5-4.2-.8-1-1.1-1.6-2.5-1.9-.8-.2-2,0-2.8,0-8.4,3.4-15.1,9.7-18.7,18.1-.7,1.5-.9,2.7-.7,4.4.6,1,1.4,1.9,2.7,2Z"/>
  <path class="st7" d="M491.5,191.6c-8-10.6-16.2-13.5-29.3-12.5-10.6,1.8-17.8,6.1-24.1,14.9-.9,1.3-1.9,2.7-2.8,4.1,9.4-6.6,14.8-10,26.4-12,11.7-1,19,.4,29.7,5.5Z"/>
  <path class="st7" d="M331.8,287.3c-6.9,5.1-12,14.4-13.4,22.9-.3,1.9-.7,4.3.6,5.9.4.6,1,.8,1.7.9.3,0,.5,0,.8,0,6.4-5,12.5-15.9,13.5-24,.2-1.6.3-3.4-.8-4.8-.5-.7-1.5-.8-2.3-.9Z"/>
  <path class="st7" d="M399.9,205c1.2-2.3.7-3.2,1.5-5.3l-.6-1-.9.5c-7.6-2.4-22.4,12.7-18.8,18.4,6.1,3.4,16.1-7.7,18.9-12.6Z"/>
  <path class="st7" d="M582.3,165.5c5.8-5.3-1.4-8.4-6.1-10.3-3.4-1.4-5.9-1.4-9.5-1.1-8,7.8,9.9,11.7,15.6,11.4Z"/>
  <path class="st7" d="M365.3,261.7l-.9-.4c-5.7,3.4-10.7,9.4-12.4,16-.3,1.3-.3,2.2,0,3.5.9.9.4.6,1.5.9,4.9-3.7,11.1-11.2,12.1-17.3.2-1.1,0-1.7-.5-2.7Z"/>
  <path class="st7" d="M609.3,167.9c2-1.2,1.4-.4,2.3-2.3-.6-5.5-9.9-8.1-14.4-8.5-1.9,1.4-1.5.7-2.3,2.7.6,5.5,9.8,8.1,14.5,8.2Z"/>
  <path class="st7" d="M548.7,153c.4,0,.7,0,1.1,0,1.7-.6,2.9-.8,4-2.3.3-3.8-8-5.2-10.9-5.2-.6,0-1.2,0-1.8,0-2,.7-3,.8-4.3,2.4-.1,4.2,8.7,5.1,11.8,5Z"/>
  <path class="st7" d="M580.7,178c1.3,4.5,7,5.3,11.1,5.1,1.9-1.6,1.3-.6,2-2.8-.8-4.4-7.2-5.8-11.1-5.8-1.8,2-1.6,1.2-2,3.5Z"/>
  <path class="st7" d="M408.3,212.5c-4.2,3.8-7.5,7.6-7.8,13.6-.2,4,.9,7.2,2.9,10.6l.8.2c-.3-3.8-1-7.1-.3-11,.7-3.6,4.3-10.8,4.3-13.3Z"/>
  <path class="st7" d="M345.7,264.3c-2.9,2.4-6.7,6.7-6.9,10.7,0,1.3,0,1.6.8,2.6l.9.2c2.8-2.5,7-7,7.1-10.9,0-1.2,0-1.4-.8-2.3l-1.1-.2Z"/>
  <path class="st7" d="M604,179.2c2,2.9,5.3,3.5,8.6,3.6,2.2-5.2-3.8-6.9-7.8-6.8-1.3,2-1.2,1.2-.8,3.2Z"/>
  <path class="st7" d="M413.8,190.9c-4.8,1.8-9.5,4.1-13.1,7.9l.6,1c3.5-1.8,9.2-6.3,12.4-8.8Z"/>
  <path class="st8" d="M715.5,479.7c7-42-9.2-77.6-49.8-94.1-2.3-.9-4.8-1.7-7-2.7l-.8-.4c-1.7,0-15.7,4-16.8,4.8-2.7,2-6.7,3.6-9.8,5.1-23,10.6-44.2,27.7-56.6,50,7.7.2,12.4,1.1,19.6,3.9l.5.7-.3.5c-4.9,2.6-14.1,4-19.9,6.4-15.4,6.3-29.1,15-39.5,28.2-2.3,2.8-5.7,8.8-7.4,10.7,11.9,3.8,27,14.2,33.1,25.5.7,1.2,1.6,3,1.6,4.5v.6c-2.9-.7-7.7-3.6-10.8-4.9-38.2-16.2-77.7-12.4-116.5-1.3-12,3.4-42.5.9-53.7-6-21.6-13.4-44.2-45.4-70.9-47.9-12.8-1.1-25.5,3-35.3,11.3-7.6,6.5-12.4,13.7-13.3,23.8,10.5-9.3,14.8-12.2,28.6-14.6-4,2-7.6,3.1-9.6,7,3.9-1.8,8.5-4.1,12.3-5.6-12.9,9.3-31.4,24-22.3,42.4,9-10.1,15.6-12.9,28.5-16.7-2.4,1.6-5.7,3.7-7.6,5.8-.4,2.1-3.2,4.6-4.5,6.4-6.6,9.1-13.2,24.3-1,32,33.7-25.5,48.6-14.6,80.2,7.8,7.1,5,14.7,10.5,21.9,15.5l.2.6-.2.2,2.1,1c2.8,1.3,7.9,5.1,10.5,7,33.1,24.9,72.1,41.7,114,40.9,8.7-.2,17.9-.7,26.6-1.5,10.8,0,21.1,5.7,31.9,2,8.6-3,12.1-11.6,17.7-17.9,3.1-3.5,13.1-11.5,17.3-12.9,3.4-1.2,22.2-21.1,25.7-25.3-2.1,5-4.1,9.2-7,13.8-1.9,3-4.2,6-5.7,9.1,19.7-6.1,44.6-29.1,57.3-45.6,1.8-2.3,6.8-10.7,8.5-11.6,5.3-11.3,10.1-22.1,13.9-34h.5s0,2.5,0,2.5c-1,7.7-1,12.1-3.6,19.5,1-1.1,4.2-4.9,4.7-6.2,0-1.7,2.7-7.4,3.5-9.4,4.3-9.3,7.2-20.9,9.2-30.9ZM544.7,609.9c-16,5.2-33.3,3.2-48.2-4.5-1.8-.9-3.4-2.1-5.1-3.3,24.5,6.9,52.7,4.9,75.5-6.7l.4.7c-6.7,6.2-13.9,10.9-22.6,13.8ZM646.6,503.2c-2.1,8.1-7.4,14.3-14.6,18.4-9.1,5.2-18.4,5.2-28.3,2.5l-.9-.3-.2-.5c5.1-.9,10.4-1,15.5-2,12.6-2.5,21.8-10,28.8-20.4,0,.8,0,1.5-.3,2.2ZM654.1,502c-1.1-3.2,2.3-13.2,3.6-16.7.8,1.1.9,1.8,1,3.2.6,5.1-1.5,9.5-4.6,13.5ZM674.9,474.2c-.9,4-3.2,7.3-6.6,9.5-1.2-.4-2.3-.9-3.1-2-1.3-1.9-1.2-4.6-.7-6.7,1-4.1,3-6.9,6.5-9.2,1.2.4,2.3,1,3,2,1.3,1.8,1.4,4.2.9,6.3ZM676.8,433.2c-1.3,6.8-4.9,13.5-10.7,17.4-.9.2-1.9.4-2.8.3-1.5-.1-3.1-1.1-4-2.3-2-2.9-1.5-7.5-1-10.8,1.2-7.2,4.7-14,10.8-18.3,1,0,2.2-.2,3.2,0,1.5.4,3,1.6,3.9,2.9,1.9,3,1.4,7.4.7,10.7ZM688.4,418.2c1.5,1.3,2.4,2.7,2.9,4.6,1,3.5.2,6.7-1.6,9.8-1.2-1.5-2.2-3.2-2.7-5-.9-3.4-.3-6.4,1.4-9.4ZM683.2,464.7c-1.2,0-2.3-.4-3.1-1.4-1.4-1.6-1.5-3.8-1.4-5.9.2-4.4,2-9.2,5.3-12.3.9,0,1.7.4,2.4,1,1.6,1.5,2.1,3.7,2.1,5.8,0,4.7-2,9.3-5.3,12.6ZM689.5,483.8l-1.3-.6c-.7-1.1-1-1.8-1.1-3.1-.1-4.4,2.7-9.8,5.7-12.9.3.2.6.3.8.5.8.7,1.1,1.9,1.2,3,.3,4.8-2.4,9.5-5.3,13ZM698.3,453.8c-.2-.1-.4-.2-.5-.3-1.6-1.1-2.2-2.7-2.5-4.6-.6-4.3.4-8.7,3-12.2.6.3,1.1.6,1.6,1,1.1,1,1.6,2.9,1.8,4.3.5,4.2-.7,8.5-3.4,11.8Z"/>
  <path class="st4" d="M591.1,610.7c-5.6,6.3-9,14.9-17.7,17.9-10.9,3.8-21.1-1.9-31.9-2-8.7.8-17.9,1.3-26.6,1.5-42,.8-81-16-114-40.9-2.5-1.9-7.6-5.8-10.5-7-3.6,1.4-6.8,2.8-10.5,3.9,31.4,32.7,73.9,58.5,120.3,59.5,11.4.3,22.8-1.1,33.7-4.3,3.9-1.2,13.1-4.5,16.6-4.9,7.5-.8,13.6,1.5,21.7-.6,4-1,7.7-3.1,10.7-6.1,4.8-4.7,7.8-10.8,11.8-16.1,3.9-5,9.3-9.3,13.8-13.7-4.2,1.4-14.2,9.4-17.3,12.9Z"/>
  <path class="st4" d="M275.1,474.6c9.8-8.3,22.5-12.3,35.3-11.3,26.7,2.5,49.3,34.6,70.9,47.9,11.2,6.9,41.7,9.4,53.7,6,38.8-11.1,78.3-14.9,116.5,1.3,3.1,1.3,7.9,4.2,10.7,4.9v-.6c-1.9-1.9-3.9-3.7-6-5.4-26.6-21.8-67.2-20.4-99.1-13.5-17.3,3.7-33.4,8.9-51.4,8.4-12.1.4-18.5-3.5-28-10.3-24.7-17.8-44.3-48.1-78.3-44.7-12.9,1.3-24.8,7.7-33,17.7-7.1,8.8-9,16.4-7.9,27.5l3.2-4.1c.8-10.1,5.6-17.3,13.3-23.8Z"/>
  <path class="st4" d="M388.4,578.4c-7.2-5-14.8-10.5-21.9-15.5-31.6-22.4-46.5-33.3-80.2-7.8-12.2-7.7-5.7-22.8,1-32,1.3-1.8,4.1-4.3,4.5-6.4-5,4.2-9.7,8.1-13.1,13.7-8.8,14.6-6,28.9,9.6,36.8,6.3-18.2,24.7-22.9,41.6-16.9,9.7,3.5,15.3,8.3,21.9,15.9l-11-4.5c3.9,8.4,6.5,10.3,15.1,13.8,11,4.5,22.2,1.8,32.6,3.7l.2-.2-.2-.6Z"/>
  <path class="st4" d="M658.7,382.9c2.2,1,4.8,1.8,7,2.7,40.5,16.4,56.8,52.1,49.8,94.1-2,10-4.9,21.6-9.2,30.9-.8,2-3.5,7.8-3.5,9.4,5.7-8.2,15.7-25.9,17.1-35.8,3.3-8.5,3.8-19.6,4.1-28.7,1.1-35.8-27.8-73.8-66.1-73l.8.4Z"/>
  <path class="st4" d="M678.7,549.8c-12.7,16.5-37.6,39.5-57.3,45.6-1.8.8-13,12-15.6,14.5,4.1-1.8,9.5-3.3,13.8-5.1,33-13.5,53.6-34.3,67.6-66.6-1.7.9-6.8,9.3-8.5,11.6Z"/>
  <path class="st4" d="M574.6,454c5.8-2.4,15-3.8,19.9-6.4-31,.7-58.7,15.8-74.2,42.9,2.1.6,5.5,1.5,7.3,2.4,1.7-1.9,5.1-7.9,7.4-10.7,10.4-13.2,24.2-21.8,39.5-28.2Z"/>
  <path class="st4" d="M631.3,392.5c3.1-1.4,7.1-3,9.8-5.1-28.7,7.8-54.5,22.8-69.2,49.4-1,1.7-2.3,3.6-2.6,5.5,2.1.4,3.2.3,5.4.2,12.5-22.3,33.6-39.4,56.6-50Z"/>
  <path class="st4" d="M293.2,485.3c-3.9,1.5-8.4,3.8-12.3,5.6-14.6,10.9-25.7,26.3-14,44.3,1.4-3.1,2.2-4.6,4-7.5-9.1-18.3,9.4-33.1,22.3-42.4Z"/>
  <path class="st7" d="M672.2,419.5c-.9-.2-2.2,0-3.2,0-6,4.2-9.6,11-10.8,18.3-.5,3.3-1,7.9,1,10.8.8,1.2,2.5,2.2,4,2.3.9,0,1.9-.1,2.8-.3,5.8-3.9,9.4-10.6,10.7-17.4.6-3.3,1.1-7.7-.7-10.7-.8-1.3-2.3-2.5-3.9-2.9Z"/>
  <path class="st7" d="M491.4,602.2c1.7,1.1,3.3,2.3,5.1,3.3,14.9,7.7,32.1,9.7,48.2,4.5,8.7-2.8,16-7.5,22.6-13.8l-.4-.7c-22.8,11.5-51,13.5-75.5,6.7Z"/>
  <path class="st7" d="M618.1,521.4c-5.1,1-10.4,1.1-15.5,2l.2.5.9.3c9.9,2.7,19.2,2.7,28.3-2.5,7.2-4.1,12.5-10.3,14.6-18.4.2-.8.3-1.5.3-2.2-7,10.4-16.2,17.9-28.8,20.4Z"/>
  <path class="st7" d="M686.5,446.2c-.7-.6-1.5-.9-2.4-1-3.3,3-5.1,7.8-5.3,12.3-.1,2,0,4.3,1.4,5.9.8,1,1.9,1.3,3.1,1.4,3.4-3.3,5.3-7.9,5.3-12.6,0-2.1-.4-4.4-2.1-5.8Z"/>
  <path class="st7" d="M671,465.8c-3.5,2.2-5.5,5.1-6.5,9.2-.5,2.1-.5,4.8.7,6.7.7,1.1,1.9,1.6,3.1,2,3.5-2.2,5.8-5.5,6.6-9.5.5-2.1.3-4.5-.9-6.3-.7-1.1-1.9-1.6-3-2Z"/>
  <path class="st7" d="M699.8,437.7c-.5-.4-1-.7-1.6-1-2.6,3.4-3.6,7.9-3,12.2.3,1.9.9,3.5,2.5,4.6.2.1.4.2.5.3,2.7-3.3,3.9-7.6,3.4-11.8-.2-1.4-.7-3.4-1.8-4.3Z"/>
  <path class="st7" d="M693.6,467.8c-.2-.2-.5-.4-.8-.5-3,3.1-5.8,8.4-5.7,12.9,0,1.3.3,2.1,1.1,3.1l1.3.6c3-3.5,5.7-8.2,5.3-13,0-1.1-.4-2.3-1.2-3Z"/>
  <path class="st7" d="M689.8,432.7c1.8-3.1,2.5-6.3,1.6-9.8-.5-1.9-1.4-3.4-2.9-4.6-1.7,3.1-2.3,6-1.4,9.4.5,1.8,1.4,3.5,2.7,5Z"/>
  <path class="st7" d="M657.7,485.4c-1.3,3.5-4.6,13.5-3.6,16.7,3.1-4,5.2-8.3,4.6-13.5-.2-1.4-.2-2.1-1-3.2Z"/>
  <path class="st8" d="M177.7,561c22.1-12.5,38.1-32.9,47.7-56,5.4-12.8,10.1-25.9,19.4-36.4,2.8-3.2,11-12.6,14.5-14.9,9.5-6.4,24.5-11.2,36-11.5,4.8-.1,9.1,1.3,13.1.9,1-.5,1.3-.8,1.9-1.7,4.3-7.2,2-13.1-.6-20.2,0-.2,0-.4,0-.6-3.2-5.5-18.4-11.3-24.3-13.1,10.3-.4,15.1.2,24.5,4.1.7-14.2-7.9-21.1-20-25.9-2.2-.9-4.9-1.6-6.9-2.8-1-.5-5.8-.8-7.3-.9,12.8-2.3,15-3.6,27.6.1l.3-.3c-.4-1.5-.3-1.8-1.3-3-5.4-3.6-8.7-5.9-15.2-7.2-21.3-4.2-46.8,6.3-58.4,24.8-19.5,31.2-6.3,57.6-45.9,73.8-2.5,1.2-4.7,1.8-7.3,2.6,2.2-1.3,4.4-2.4,6.6-3.6v-.3c-.1-.2,0,0-.5-1,1.9-2.4,5.2-5.9,6.3-8.6l-.3-.6-1.3.2c-4.8,3.4-17.1,6.7-23.3,10-14.5,7.7-26.3,19.6-34,34-1.5,2.7-4.7,10.9-5.8,12.4l-.9,8.4c2.9-5.9,4.5-10,8.4-15.4-6,19.4-9.5,39.6-17.2,58.7-2.7,6.7,3.8,9.3,9.2,11.6,9.3-5.9,18-4.9,27.8-7.1,9.5-2.1,18.6-5.7,27.1-10.5Z"/>
  <path class="st4" d="M251.4,555.6c-6.8,7.8-22.5,21.3-33,22-5.9,2.7-12,5-18.3,6.9,5.2-3.9,9.8-6.5,14.9-11.1,18.5-16.8,27.2-36.7,28.8-61.2-5.3,3.6-7.2,4.1-13.5,6,10.5-9.8,16.5-16.5,17.9-30.7,1-9.9,10.3-21.7,17.9-27.8,14.5-11.8,29.6-13.7,47.6-11.8,6-10.6,4.1-18.5-4.1-27.2,0,.2,0,.4,0,.6,2.6,7,4.9,13,.6,20.2-.5.9-.9,1.2-1.9,1.7-4.1.4-8.4-1.1-13.1-.9-11.5.4-26.5,5.1-36,11.5-3.5,2.3-11.6,11.7-14.5,14.9-9.3,10.5-14.1,23.6-19.4,36.4-9.6,23.1-25.7,43.5-47.7,56-8.4,4.9-17.6,8.4-27.1,10.5-9.8,2.2-18.4,1.2-27.8,7.1,15.2,6.3,24.6,11.5,41.7,13.2,26.5,2.6,61.8-1.1,83.1-18,3.3-8.1,4.3-9,3.8-18.2ZM193.7,574c-4.5,4.8-10.6,7.2-17.1,7.6v-.3c7.2-4,14.2-8,20.6-13.2,0,2.2-2,4.4-3.5,5.9Z"/>
  <path class="st9" d="M252.3,533.9c-6.5,19.9-16.5,32.1-33.8,43.7,10.4-.7,26.2-14.3,33-22,.5,9.2-.5,10.1-3.8,18.2,7.8-5.8,11.3-10.6,16.2-19-.3-2.7-.5-4.7-.6-7.5-5.5-3.7-8.3-7.5-10.9-13.5Z"/>
  <path class="st7" d="M176.5,581.5c6.5-.3,12.6-2.7,17.1-7.6,1.5-1.6,3.5-3.7,3.5-5.9-6.5,5.1-13.5,9.2-20.7,13.2v.3Z"/>
  <path class="st4" d="M182.9,470.3c39.6-16.2,26.4-42.6,45.9-73.8,11.6-18.5,37.1-29,58.4-24.8,6.5,1.3,9.8,3.6,15.2,7.2-11.5-20-40.1-15.7-56.9-5.7-18.9,11.3-28.1,29.4-33.1,50.3-5,21.6-4.7,30.5-25.8,43.3-1.4.8-2.8,1.6-4.3,2.3v.3c0,0,.6,1,.6,1Z"/>
  <path class="st8" d="M163.3,469c6.2-3.3,18.5-6.6,23.3-10-22.8,2.8-35.3,6.7-50.6,25.7-6.5,8-11.6,20.4-12.5,30.7,1.1-1.5,4.3-9.7,5.8-12.4,7.7-14.4,19.6-26.3,34-34Z"/>
  <path class="st1" d="M163.3,469c6.2-3.3,18.5-6.6,23.3-10-22.8,2.8-35.3,6.7-50.6,25.7-6.5,8-11.6,20.4-12.5,30.7,1.1-1.5,4.3-9.7,5.8-12.4,7.7-14.4,19.6-26.3,34-34Z"/>
  <path class="st4" d="M309.9,411.7c1.8,1.1,3.7,2.8,5.4,4.1,1.6-20.8-13.8-30.4-32.2-32.8,1.9,1.3,4.7,1.9,6.9,2.8,12,4.9,20.7,11.7,20,25.9Z"/>
  <path class="st9" d="M175.6,472.9c2.6-.8,4.8-1.4,7.3-2.6l-.6-1c-2.2,1.2-4.4,2.3-6.6,3.6Z"/>
  <path class="st6" d="M240.5,363.9c-6.9-20.3-15.6-40.9-21.5-61.4l.2-.5c2,3.3,3.6,8.7,5.3,12.3,7.5,15.4,13,31.9,19.5,47.7,4.7-2.4,14.8-5.3,16-6-1.4-8.7-3.7-22-3.6-30.6,3,9.4,4.7,20.7,7.3,30.5,1.4-.5,4.9-.7,6.5-.8-14.9-88.9-23.3-179.7-48.3-266.8-2.2-7.8-6.8-24.8-11.6-31.1-12.2-15.8-42.1-16.9-57.5-5.5.6,1.9-5.2,13-7.1,14.8,4.1,17.2,8.6,34.3,13.3,51.3,2.2,7.7,4.8,15.8,6.9,23.4-3.9-7-22-62.7-23.3-71.3-4.9,4.5-5.5,7.4-7.9,9.9-.7,5.3.3,18.1-1.1,20.2,1.9,7.4,4.5,14.9,6.8,22.2,15.1,48.8,34,95.6,53.2,142.9,9.5,23.4,19,46.7,28.8,70,4.2,10,8.9,22.9,13.4,32.3l4.8-3.6ZM219.4,255c-3.1-12.3-7.7-23.6-13-35.1.1,0,.3.1.4.2,1.8,1.5,3.4,4,4.7,5.9,11.8,17,13.9,38.5,17.2,58.4,1.1,6.6,2.6,13.2,3.4,19.8-5.5-9.8-9.6-37-12.7-49.2ZM246.3,335.6c-3.6-16.3-7.3-33.2-9.8-49.7,0,.1.2.2.3.3,5.7,7.6,10.2,38.7,9.5,49.4ZM241.8,255.5c-5.1-14.5-10.8-37.4-13.8-52.9-.7-3.8-2.2-11.8-2.3-15.7,1.8,4.8,2.8,10.2,4,15.2,1.7,6.9,3.6,13.7,5.5,20.5,9.5,33.7,20.7,63.9,22.7,99.4-1.3-1.3-13.2-58.5-16.1-66.5ZM207.9,70.1c11.7,29.9,18.9,63.7,25.7,95.1,3.5,16.2,9.6,44.7,10.3,60.9-1.2-2.4-4.8-22.2-5.7-26.2-4.6-23-9.7-46-15.1-68.8-3.9-15.9-8.2-31.6-12.9-47.3-2.3-7.6-5.1-15.9-7.2-23.4,1.7,1.9,3.9,7.3,4.9,9.7ZM214.4,155.6c-1.2-1.7-2.3-7.7-2.5-10-1.9-19-10.7-38.1-14.4-56.2,10,11.8,15.5,50.4,16.9,66.2ZM215.3,188.2c-11.3-8.5-23.2-56.8-22.7-71.9.9,2.9,1.7,6.8,2.3,9.8,4.2,21.6,12,41.8,20.5,62ZM185.8,52.6c2.8,4.9,7.9,25.7,8.6,30-4.7-7.9-6.4-21.5-13.4-30.7,1.2,0,4.5.1,4.8.7ZM160.5,60.3c-.4-.9-2.6-1-3.5-1.1.9-1.3,3.6-2.5,5.1-3.3l.7.3c12.2,16.6,23.9,91.8,31,116.2,2.6,9.2,6,18.2,10,27,1.8,4,5.1,9.6,6.4,13.2h-.4s-1.4-1.7-1.4-1.7c-7.2-10.1-10.3-17.5-14.3-29.2-13.6-39.7-16.3-83-33.7-121.3ZM177.5,210.6c-12.4-32.6-23.7-65.6-33.8-99-2-6.6-6.8-22.4-7.2-28.7,1.7,1.8,44.4,133.1,49.4,147.4-2-1.7-7-16-8.4-19.6ZM176.6,165.4c1.2,1,3.2,8.6,4,10.5,12.1,31.7,17.6,65.5,30.1,97,1.9,4.7,4.8,10.5,5.9,15.2-11.2-13.1-35.7-101.9-40-122.7Z"/>
  <path class="st2" d="M142.6,70l-2.7-7.9c-4.4,5.5-6.9,9.1-8.8,15.9,2.1.4,2,.4,3.6,1.9,2.4-2.5,2.9-5.3,7.9-9.9Z"/>
  <path class="st7" d="M260,356c1.4.4,2.3.4,3.7-.1-2.6-9.7-4.3-21-7.3-30.5-.1,8.6,2.2,21.9,3.6,30.6Z"/>
  <path class="st2" d="M134.8,79.9c-1.6-1.5-1.5-1.4-3.6-1.9-2.2,8.6,0,13.9,2.5,22.1,1.5-2.1.4-15,1.1-20.2Z"/>
  <path class="st2" d="M152.9,51.7c-3.5,2-5.5,3.7-8.6,6.3.4,2.8.8,5.7,1.5,8.4,2-1.8,7.8-12.8,7.1-14.8Z"/>
  <path class="st7" d="M208.5,210.9l1.4,1.7h.4c-1.3-3.7-4.6-9.3-6.4-13.2-4-8.7-7.4-17.7-10-27-7.1-24.4-18.9-99.6-31-116.2l-.7-.3c-1.5.8-4.2,2-5.1,3.3.9.1,3.1.2,3.5,1.1,17.4,38.4,20.1,81.6,33.7,121.3,4,11.8,7.1,19.1,14.3,29.2Z"/>
  <path class="st7" d="M223.1,131.1c5.4,22.9,10.5,45.8,15.1,68.8.8,4,4.5,23.8,5.7,26.2-.8-16.2-6.9-44.7-10.3-60.9-6.7-31.4-13.9-65.1-25.7-95.1-1-2.4-3.2-7.9-4.9-9.7,2.1,7.5,4.9,15.7,7.2,23.4,4.6,15.7,8.9,31.4,12.9,47.3Z"/>
  <path class="st7" d="M143.7,111.6c10.1,33.4,21.4,66.4,33.8,99,1.4,3.6,6.4,17.9,8.4,19.6-4.9-14.3-47.6-145.6-49.4-147.4.3,6.3,5.2,22.1,7.2,28.7Z"/>
  <path class="st7" d="M229.6,202.2c-1.2-5-2.2-10.4-4-15.2.1,3.9,1.6,11.9,2.3,15.7,3,15.5,8.7,38.4,13.8,52.9,2.9,8,14.8,65.2,16.1,66.5-2-35.4-13.2-65.7-22.7-99.4-1.9-6.8-3.8-13.6-5.5-20.5Z"/>
  <path class="st7" d="M180.6,175.9c-.7-1.9-2.8-9.5-4-10.5,4.3,20.8,28.8,109.6,40,122.7-1.1-4.8-4.1-10.5-5.9-15.2-12.5-31.5-18-65.2-30.1-97Z"/>
  <path class="st7" d="M211.5,226c-1.3-1.9-2.9-4.4-4.7-5.9-.1-.1-.3-.2-.4-.2,5.3,11.5,9.8,22.8,13,35.1,3.1,12.2,7.2,39.4,12.7,49.2-.8-6.6-2.4-13.2-3.4-19.8-3.2-19.9-5.3-41.3-17.2-58.4Z"/>
  <path class="st7" d="M215.3,188.2c-8.5-20.3-16.3-40.4-20.5-62-.6-3.1-1.3-6.9-2.3-9.8-.4,15.1,11.4,63.4,22.7,71.9Z"/>
  <path class="st7" d="M214.4,155.6c-1.5-15.8-7-54.3-16.9-66.2,3.7,18.1,12.5,37.2,14.4,56.2.2,2.3,1.4,8.3,2.5,10Z"/>
  <path class="st7" d="M236.5,285.9c2.5,16.5,6.2,33.4,9.8,49.7.7-10.7-3.9-41.8-9.5-49.4,0-.1-.2-.2-.3-.3Z"/>
  <path class="st7" d="M185.8,52.6c-.3-.5-3.6-.6-4.8-.7,7,9.2,8.7,22.8,13.4,30.7-.7-4.3-5.8-25.1-8.6-30Z"/>
  <path class="st6" d="M882.1,89.9c-1,1-2.7,2.7-4,3-2,2.4-24.2,15.2-27.3,15.9l-2.4,2.2c-4.7,2.4-25.7,15.4-28.7,15.8-1.2,1.3-1.2,1.6-2.8,2-7.9,3.8-24.7,14.8-30.9,16.9-.8.9-1.3,1.5-2,2.5l-.5-.2-.3-4.3c0,1.5,0,3.3-.8,4.4-6.3,3.3-12.5,6.7-18.6,10.3-3.5,2-9.1,5.5-12.7,6.9-.7,1.2-1.5,2.4-2.2,3.6h-.6s-.5-1.1-.5-1.1c-5.5,1.4-21.1,11.7-27.1,14.8.5,2.6,1.2,5.8,1.1,8.3,6.7,10,22.2,11.5,32.6,7.1,9-3.8,15.1-8,22.3-14.6-10.8-.7-19.8-3.9-22-15.5,16.6,19.1,39.7,6.3,54.3-7.7-7.1-.6-17.1-2.8-19.1-10.8,1.4-.4,4.9,2.6,7.5,3.5,8.7,3,17.1,1.7,25.2-2.3,3.8-1.8,15.9-9.2,17.2-12.9-8.8-.6-12.7-2.4-17.6-9.7,7.9,3.9,11.2,4.7,20,4.4,11-2.3,17.7-8.2,25.6-15.5-4.2-.2-12.9-1.4-13-6.8,2.5-.3,5.5,2.1,10,2.1,11.6,0,21.3-7.9,29.2-15.5-2.5-.2-4.4-.5-6.8-.9-2-1.6-3.5-3.2-5.2-5.1,18.2,4.1,25.3-2.7,37.7-14.5-3-.6-6-.9-8.3-2.9-3.8,3.4-24.7,16.4-29.2,16.4Z"/>
  <path class="st0" d="M720.8,182.7c6.1-3,21.6-13.4,27.1-14.8.1-5.3.1-7.1,2-12.2-10.6,2.5-21.8,7.4-27.8,17-3.7,6-4.1,12.3-.3,18.3.1-2.6-.6-5.7-1.1-8.3Z"/>
  <path class="st0" d="M782.5,148.2c.9-1.1.7-2.9.8-4.4l1.3-5.3c-18,4-26.3,10.1-33.4,26.9,3.6-1.4,9.1-4.9,12.7-6.9,6.1-3.6,12.3-7.1,18.6-10.3Z"/>
  <path class="st0" d="M818,121.5c-17.1,4.9-23.8,8.5-31.9,24.3,6.2-2.1,23-13.1,30.9-16.9.2-2.8.4-4.6,1-7.4Z"/>
  <path class="st0" d="M848.5,106l-.4-.4c-5.2.9-11.9,4.3-16.5,7.2-5.5,3.5-8.7,8.7-11.8,14.2,2.9-.5,23.9-13.4,28.7-15.8v-5.1Z"/>
  <path class="st0" d="M878.1,93c.2-1.6.6-2.3,0-3.3-4.5-.1-17.3,7-20.9,10.5-1.6,1.5-5,6.7-6.4,8.7,3.2-.7,25.4-13.5,27.3-15.9Z"/>
  <path class="st0" d="M882.1,89.9c4.5,0,25.3-13,29.2-16.4-7.9-3-24.7,9.6-29.2,16.4Z"/>
  <path class="st7" d="M822.1,128.1c4.8,7.2,8.8,9.1,17.6,9.7l2.4-5.3c-8.8.3-12.1-.5-20-4.4Z"/>
  <path class="st4" d="M642.5,746.6c4.6-15.9,15.5-40.4,34.3-42.8,17.2,5.8-11.7,26.6-.5,33.2,2.4.2,4.2-.7,6-2.3,8.6-7.7,12-15.8,22.9-21.4.8-1.4,3.8-12.8,4.4-15.2-5.5,1.6-12.8,2.4-16.5-3.2-11.3-16.9,7.7-35.6,16.2-49.7,8-13.4,1.1-27.2-13.6-16.4-15,11-13,31.9-18.8,47.5-2.5,6.8-6.2,11.7-11.3,17,1.3-4.8,5.8-26.4-7.1-20.9-10.2,4.4-9.3,25.8-14.6,34.6-3.5,5.8-5.8,8.4-11.6,12.4,1.4,11.1,3.7,17.9,10.2,26.9Z"/>
  <path class="st8" d="M682.4,734.7c-1.8,1.6-3.6,2.5-6,2.3-11.2-6.7,17.6-27.4.5-33.2-1.7,8.4-12,10.5-17.2,17.8-6.8,9.6-10.1,18-13,29.3,14.6,14.5,34.8,12.7,52.8,6.6.8-17.2,3.7-28.1,5.8-44.2-10.9,5.5-14.2,13.6-22.9,21.4ZM685,739.9c-1.8,1.8-3.8,3.5-6.2,4.4-2.1.8-4.5,1-6.5,0-1.8-.9-3-2.7-3.5-4.6-1.1-4.1.4-8.7,2.4-12.3,1.4.9.8,8.7,1.7,10.7.6,1.2,1.1,1.7,2.3,2.1,4.1,1.3,10.4-2.9,14-4.8-1.3,1.5-2.8,3-4.2,4.5Z"/>
  <path class="st7" d="M675.2,740.2c-1.3-.4-1.8-.9-2.3-2.1-1-2.1-.3-9.8-1.7-10.7-2,3.6-3.5,8.2-2.4,12.3.5,1.9,1.7,3.7,3.5,4.6,2,1,4.5.9,6.5,0,2.3-.9,4.4-2.6,6.2-4.4,1.4-1.5,2.9-2.9,4.2-4.5-3.5,1.9-9.9,6.1-14,4.8Z"/>
  <path class="st6" d="M718.8,192.4c-.9-1.9-1.6-3.8-2.6-5.6-.9,1.3-.4,1-1.6,1.4l-1-1.3c-2.8,0-23.2,12.1-28.9,14.1-.9,2.1-1.8,4.6-2.8,6.7-.1-1-.5-5.4-.8-6-1.6,3.3-23.3,11.8-28.3,15.7,2,21.1,23.3,28.8,41,21.5,7.4-3.1,11.7-6.2,17.9-11.3-12.6-1.6-21.4-5.9-23.9-19.5.7,1,1.4,2.1,2.2,3.1,4.5,5.7,11.1,9.4,18.4,10.2,13.5,1.4,25.3-6.7,35.2-14.8-10.5-.7-20-4.3-24.9-14.2Z"/>
  <path class="st0" d="M681.2,201.6c-.3-4.1.4-6.7,1.6-10.5.9-1.8,1.9-4,2.9-5.6-11.3,2.8-22.4,7.3-28.7,17.7-2.6,4.3-4,9.1-4.2,14.1,5-3.9,26.7-12.4,28.3-15.7Z"/>
  <path class="st0" d="M713.6,186.9c.6-6.6.5-8.5,3-14.5-14.7,3.9-23.2,7.7-29.7,22l-2.2,6.7c5.6-2.1,26-14.2,28.9-14.1Z"/>
  <path class="st7" d="M681.2,201.6c.3.7.7,5,.8,6,1-2.1,1.9-4.5,2.8-6.7l2.2-6.7c-.3-.5-2.8-2-4.1-3.2-1.2,3.8-1.9,6.4-1.6,10.5Z"/>
  <path class="st4" d="M243.1,683.8c2.7-1.8,5.2-3,8.4-3.6,7.1-1,13.6,0,20.7,1.5-16.4-19.4-34-41.4-61.3-43.9-2.6-.2-5.5-.3-8.1,0-6.4.8-13.1,2.1-17.3,7.5-1.6,2.1-3,4.7-2.6,7.4.4,2.7,2.7,4.9,4.9,6.3,4.5,3,9.5,3.5,14.7,4,18.7,1.8,29.5,5,40.5,20.8Z"/>
  <path class="st6" d="M352.3,588.9c-4.5-4.8-13.3-7.2-19.9-7.2-10.4,0-21.4,3.4-29,10.7l4-1.3.3.3c-1.8,3.9-3.9,5.6-5.6,9.7-1,2.5-3.2,14-3.8,15.3,2.9,3.8,10.3,5.8,15,6.2,12.2.9,24.9-2.4,34.4-10.3,6.9-5.8,11.5-15.8,4.5-23.4ZM312.8,602.6c-3.8,2.4-6.8,4.7-9.4,8.4l-.4.6h-.6c0-2.2,1.5-5.2,2.8-6.9,5.4-6.9,15.8-10.2,24.2-11.1,6.5-.7,12.3.2,17.9,3.6-12.1-2.3-23.7-.8-34.5,5.3Z"/>
  <path class="st0" d="M307.8,591.4l-.3-.3-4,1.3c-7.1,6.6-11.7,15.2-5.1,24.1.6-1.2,2.8-12.7,3.8-15.3,1.7-4.2,3.8-5.9,5.6-9.7Z"/>
  <path class="st7" d="M329.4,593.7c-8.4.9-18.8,4.1-24.2,11.1-1.3,1.7-2.8,4.6-2.8,6.8h.6c0,.1.4-.5.4-.5,2.6-3.7,5.6-6,9.4-8.4,10.8-6.2,22.4-7.7,34.5-5.3-5.7-3.4-11.4-4.2-17.9-3.6Z"/>
  <path class="st6" d="M622.7,229.1c-3.3,14.5,11.1,30,25.7,31,13.9,1,22.5-4.1,33.2-12.4-17.8-1.2-31.1-11.3-33.4-29.5-2.9,1.3-23.7,11.6-25.1,11.7l-.4-.7Z"/>
  <path class="st0" d="M622.7,229.1l.4.7c1.4,0,22.1-10.3,25.1-11.7-.2-7.5,1.1-12.2,5-18.6-16.4,4.5-28.1,11.2-30.5,29.6Z"/>
  <path class="st8" d="M169.1,453c8.8-1.9,16-2.6,24.7-4.2,5.2-6.6,5.4-13.4,7.1-21.2,1.3-5.9,2.8-11.6,4.3-17.5-18.1,9.5-29,23.9-36.1,42.9Z"/>
  <path class="st4" d="M205.3,410l2.8-6.6c-24.9,9.2-37.2,27.3-45.6,51.6l6.7-2.1c7.1-19,18.1-33.4,36.1-42.9Z"/>
  <path class="st4" d="M561,802.4c0-2-.8-3.8-2.3-5.2-2.5-2.2-5.3-2.4-8.5-2.2-6.8,2.5-11.3,6.7-14.4,13.2-2.2,4.6-3.3,9.5-4.3,14.4-.8-3.6-1.6-7.2-2.2-10.9-1.5,1.4-2.9,2.9-4.4,4.3.8,8.1,3.6,16.1,7.6,23.2l4,6.5c0-9.2,1.3-19.5,8.1-26.3,5-5,16.4-8.8,16.4-17Z"/>
  <path class="st5" d="M453.8,306c-2.3-1.8-4.6-4.3-7.1-5.8-.5,6.6-.4,12.3,4.1,17.7,4.5,5.4,11.4,7.5,18.2,8,8.4.5,17.2-1,25.5-2.7l1.4-.5c-2.9-1.2-6.7-1.5-9.9-2.2-4.3-.9-8.6-2.2-12.7-3.7-7.1-2.7-13.5-6.2-19.5-10.9Z"/>
  <path class="st6" d="M323.9,573.7c-2-5-3.8-9.6-5.3-14.7-.3-.9-.3-1.4-1-1.7-2.8-1-8.9,1.3-11.6,2.3l3.9,18.7c5.7-2.4,8.6-2.7,14-4.5Z"/>
  <path class="st6" d="M335.4,573.8c-2.2-4.9-4-9.6-5.9-14.5-3.3-1-5.3-1.6-8.7-2.2,1.5,5.4,2.9,10.9,4.2,16.3,1.5.2,8.2.3,10.4.4Z"/>
  <path class="st7" d="M325,573.3c-1.3-5.5-2.7-10.9-4.2-16.3-.7.6-1.7,1.2-2.2,1.9,1.5,5.2,3.4,9.8,5.3,14.7l1-.3Z"/>
  <path class="st4" d="M308.6,373.3c3.9,5.6,9.3,21.6,14.9,24.2l1.4-1.1c3-4.7,4-9.6,2.8-15-1.4-5.7-5-10.7-10.1-13.7-4.9-2.8-9.7-3.2-15.2-2.6l-.8.6c1.2,2.2,5.2,4.8,7.1,7.5Z"/>
  <path class="st6" d="M914.5,71.7c13.1,1,22.3-9,31.4-17.3l-2.9-.5c-8.9,5.9-19.1,12.9-28.5,17.8Z"/>
  <path class="st0" d="M942.5,53.2c-4.8,2.2-28.2,13.9-29,18.1l1,.4c9.4-4.8,19.7-11.8,28.5-17.8l-.5-.7Z"/>
  <path class="st6" d="M302.6,561.7l-1.8,1.6c1,4.6,3.3,13.9,3.1,18.3l4.6-2.6c-.8-2.8-4.5-16.2-5.9-17.3Z"/>
  <path class="st2" d="M300.8,563.3c-1.1,1.3-2.1,2.5-3.1,3.9.8,3.6,2.5,12.9,3.7,15.9,1.4-.5,1.2-.6,2.4-1.5.2-4.4-2.1-13.6-3.1-18.3Z"/>
  <path class="st2" d="M943,53.9l2.9.5c2.2-2.1,5.9-5.2,8.3-7.3-3.9,1.9-8,3.9-11.7,6.1l.5.7Z"/>
  <path class="st6" d="M879.6,500.5c-3.8-5.5-9.9-8.6-16.4-9.7-3.8-.6-8.3-.7-12-.1-21.1,3.4-39.2,17.9-51.4,34.8-12.4,17.1-18.5,36.6-18.8,57.6,5.8-5.2,11.9-10.1,18.3-14.7,8.6-6,17.5-11.4,27.3-15.1,20.1-7.7,51.4-10.2,56.5-36.1,1.2-5.8,0-11.9-3.5-16.8ZM875.6,517.1c-5,20.3-33.9,23-50.2,29.1-8.3,3.1-15.8,7.5-23.2,12.1-4.7,3.2-9.2,6.8-13.7,10.4,3.4-15.2,9.3-29.1,18.9-41.4,11.7-14.9,27.4-27.2,46.6-29.6,2.8-.2,5.5-.3,8.3.3,4.7,1,9.3,3.5,11.9,7.7,2.1,3.4,2.2,7.6,1.3,11.4Z"/>
  <path class="st7" d="M862.4,498c-2.8-.6-5.5-.5-8.3-.3-19.2,2.4-34.9,14.7-46.6,29.6-9.6,12.3-15.5,26.2-18.9,41.4,4.5-3.6,8.9-7.2,13.7-10.4,7.5-4.7,15-9,23.2-12.1,16.3-6,45.1-8.8,50.2-29.1,1-3.8.8-8-1.3-11.4-2.6-4.2-7.2-6.7-11.9-7.7ZM867.4,515.6c-1.7,12.8-31.8,18.6-41.6,22.5-6.8,2.7-13.2,6.6-19.1,10.8-3.1,2.3-6,4.8-8.8,7.4,4.6-8.3,9.2-16.4,15.2-23.8,10.7-13.4,24.7-24.9,42.2-26.8.8,0,1.5,0,2.2,0,3.3.3,6.1,1.2,8.3,3.9,1.4,1.7,2,3.7,1.7,5.9Z"/>
  <path class="st4" d="M857.4,505.8c-.8,0-1.5-.1-2.2,0-17.5,1.9-31.5,13.5-42.2,26.8-5.9,7.4-10.6,15.5-15.2,23.8,2.9-2.6,5.8-5,8.8-7.4,5.9-4.3,12.3-8.1,19.1-10.8,9.8-3.9,39.9-9.7,41.6-22.5.3-2.2-.4-4.1-1.7-5.9-2.2-2.7-4.9-3.6-8.3-3.9Z"/>
  <path class="st6" d="M104.3,700.7c5.6,4,12.6,4.9,19.3,3.7,6.8-1.2,12.1-4.5,17.7-8.3,12-9.2,22.6-13,37.7-14.2-10.9-13.5-23.8-23.9-41.6-25.8-3.7-.4-7.4-.3-11.2,0-9.7,1.4-19,5.3-25.1,13.3-3.9,5-5.9,11.5-5,17.9.8,5.4,3.8,10.2,8.2,13.4ZM107,673.6c5.4-6.8,13.3-9.3,21.6-10.4.4,0,.8,0,1.2,0,13.9-.8,25.4,4.4,35.6,13.5-14,4.1-19.3,7.2-30.9,15.9-3.6,2.3-7.5,4.3-11.7,5.1-4.7.9-9.8.5-13.8-2.3-3.2-2.2-5.2-5.7-5.7-9.6-.6-4.4,1-8.8,3.8-12.2Z"/>
  <path class="st7" d="M109,695.3c4,2.8,9.1,3.2,13.8,2.3,4.3-.8,8.1-2.8,11.7-5.1,11.6-8.7,16.9-11.8,30.9-15.9-10.2-9.1-21.7-14.3-35.6-13.5-.4,0-.8,0-1.2,0-8.2,1-16.2,3.6-21.6,10.4-2.7,3.4-4.3,7.8-3.8,12.2.5,3.9,2.5,7.3,5.7,9.6ZM114.3,677.9c4-5,10.7-6.5,16.8-7.3,7.2-.7,13.9,1.3,20.5,3.7-8.4,2.4-14.3,7-21.2,12.1-2.3,1.3-4.5,2.3-7.1,3-2.8.7-6.1.9-8.6-.9-1.4-.9-2.3-2.4-2.5-4.1-.3-2.4.6-4.7,2.1-6.6Z"/>
  <path class="st4" d="M114.7,688.6c2.5,1.7,5.8,1.5,8.6.9,2.5-.6,4.8-1.7,7.1-3,6.9-5.1,12.8-9.8,21.2-12.1-6.6-2.4-13.4-4.5-20.5-3.7-6.1.7-12.8,2.2-16.8,7.3-1.5,1.8-2.4,4.2-2.1,6.6.2,1.7,1.1,3.2,2.5,4.1Z"/>
  <path class="st6" d="M148.3,810.5c-12.4-11.6-35.8-17.3-48.9-3.5-3.9,4.1-6,9.7-5.8,15.3.3,5.9,3,11.3,7.5,15.1,13,11.2,29.3,5.9,43.7,2.3,6.8-1.8,17.3-1.3,24.5-1-3.6-6.6-9.6-16.8-14.8-22-1.9-2.1-4.2-4.2-6.2-6.1ZM157.9,831.6c-6.4.4-12.6,1-18.9,2.2-9.8,2.9-20.3,5.9-30,.5-3.8-2.1-6.9-5.5-8-9.8-.9-3.7-.2-7.5,1.9-10.7,3-4.7,7.8-6.7,13-7.8,3-.2,5.9-.2,8.9.2,15,2.4,24.7,13.7,33.1,25.3Z"/>
  <path class="st2" d="M149.7,810.4h-1.5c2,2,4.3,4.2,6.2,6.2l.2-1.4c-1.5-1.6-3.3-3.2-5-4.8Z"/>
  <path class="st7" d="M124.8,806.4c-2.9-.5-5.9-.5-8.9-.2-5.2,1.1-10,3.1-13,7.8-2.1,3.1-2.8,7-1.9,10.7,1.1,4.3,4.2,7.6,8,9.8,9.6,5.4,20.1,2.3,30-.5,6.3-1.2,12.5-1.8,18.9-2.2-8.4-11.6-18.1-22.9-33.1-25.3ZM134.9,827.3c-1.9.5-3.7,1-5.6,1.5-5.4,1.3-12,1.5-16.7-1.6-2-1.3-3.8-3.4-4-5.8-.1-1.4.4-2.8,1.2-3.9,2.3-2.9,5.8-3.8,9.2-4.3,11-.6,19.9,6.2,27.7,13.1-4,0-7.8.3-11.8,1Z"/>
  <path class="st4" d="M119,813.1c-3.4.5-7,1.4-9.2,4.3-.8,1.1-1.3,2.5-1.2,3.9.2,2.4,2,4.5,4,5.8,4.8,3.1,11.4,2.9,16.7,1.6,1.9-.5,3.8-1,5.6-1.5,3.9-.7,7.8-.9,11.8-1-7.8-7-16.6-13.7-27.7-13.1Z"/>
  <path class="st6" d="M865.2,672.8c-10.7,12.2-15.5,27.2-19.7,42.6,5.6-2.2,11.2-4.2,16.9-6.1,16.5-5.2,40.9-6.3,49.9-23.4,2.6-5,3.5-10.4,1.8-15.9-1.5-4.6-4.9-8.5-9.2-10.7-3.4-1.7-7.2-2.2-10.9-2.1-11.7.8-21.1,7-28.7,15.6ZM891.9,664.1c3.2-.3,6.5,0,9.5,1.5,2.8,1.4,5,3.8,5.9,6.8,1.1,3.7.2,7.8-1.6,11-6.7,11.9-24.9,13.6-36.8,16.9-4.6,1.5-9.2,3.1-13.7,4.8,2.5-7.5,5.7-14.6,10-21.2,6.4-9.8,15-17.4,26.7-19.8Z"/>
  <path class="st7" d="M855.2,705.1c4.5-1.7,9.1-3.3,13.7-4.8,11.9-3.3,30.1-5,36.8-16.9,1.8-3.3,2.7-7.4,1.6-11-.9-3-3.1-5.4-5.9-6.8-3-1.5-6.2-1.8-9.5-1.5-11.7,2.4-20.2,10-26.7,19.8-4.3,6.6-7.5,13.7-10,21.2ZM889.7,671.6c2.2-.2,4.8-.6,6.8.4,1.5.7,2.6,2.2,3.1,3.7.5,1.6.4,3.1-.4,4.6-4.2,7.7-18.3,9.8-25.8,12.1-2.9,1-5.7,2.3-8.5,3.6,6.4-10.7,12.8-19.7,24.8-24.3Z"/>
  <path class="st4" d="M873.4,692.3c7.6-2.3,21.6-4.4,25.8-12.1.8-1.5.9-3,.4-4.6-.5-1.6-1.5-3-3.1-3.7-2.1-.9-4.6-.6-6.8-.4-12,4.6-18.4,13.6-24.8,24.3,2.8-1.2,5.6-2.6,8.5-3.6Z"/>
  <path class="st6" d="M739.8,531.6c-9.1,1.4-15.9,5.9-21.3,13.3-9,12.2-11.6,27.9-9.3,42.7.7,4.4,1.8,8.7,2.9,13,2.6-3.1,5.4-6.2,8.2-9.1,3.2-3.1,6.5-5.9,10.2-8.3,12.2-8,28.3-15,28.7-32.2.1-5.1-1.7-10.8-5.3-14.4-3.6-3.6-8.6-5.3-13.7-5.1-.2,0-.4,0-.6,0ZM749.7,542.4c2.1,2.8,2.8,7,2.3,10.4-2,14.5-18.5,19.3-28.4,27l-.6.5c-2.5,2.2-4.7,4.5-7,6.8-1.9-11.1-.6-22.9,4.7-32.9,3.9-7.5,9.3-13,17.6-15.6,1.2,0,2.4-.1,3.6,0,2.9.3,6,1.5,7.8,3.8Z"/>
  <path class="st7" d="M738.3,538.6c-8.2,2.6-13.6,8.1-17.6,15.6-5.2,10-6.6,21.8-4.7,32.9,2.3-2.3,4.5-4.7,7-6.8l.6-.5c9.9-7.7,26.4-12.6,28.4-27,.5-3.4-.2-7.6-2.3-10.4-1.8-2.4-4.9-3.6-7.8-3.8-1.2-.1-2.4,0-3.6,0ZM743.9,547.7c1,1.5,1.2,4,.8,5.8-1.6,7.8-12.4,12.7-18.5,16.6-1.7,1.4-3.3,2.9-5,4.3.8-3.8,1.7-7.7,2.9-11.4,2.6-7.7,6.5-13.3,14-16.9.4,0,.7,0,1.1,0,1.6,0,3.6.2,4.6,1.7Z"/>
  <path class="st4" d="M738.2,546.1c-7.5,3.7-11.4,9.2-14,16.9-1.3,3.7-2.1,7.6-2.9,11.4,1.6-1.4,3.3-2.9,5-4.3,6.1-3.9,16.9-8.8,18.5-16.6.4-1.7.3-4.2-.8-5.8-1-1.5-2.9-1.7-4.6-1.7-.4,0-.7,0-1.1,0Z"/>
</svg>